# Blender v2.60 (sub 0) OBJ File: 'humanfigure25.blend'
# www.blender.org
o Mesh_Cube-mesh
v -0.008550 -0.118138 0.258105
v -0.006259 -0.148149 0.246758
v 0.006804 -0.148149 0.251218
v 0.007786 -0.118138 0.257871
v 0.006674 -0.148149 0.169324
v -0.006375 -0.148149 0.173759
v -0.008701 -0.118138 0.162877
v 0.007635 -0.118138 0.162643
v 0.017248 -0.158643 0.194193
v 0.017674 -0.118138 0.187082
v 0.017746 -0.118138 0.232081
v 0.017207 -0.158643 0.225652
v -0.013700 -0.148149 0.229614
v -0.018590 -0.118138 0.232600
v -0.018662 -0.118138 0.187601
v -0.013762 -0.148149 0.190448
v -0.006287 -0.164491 0.229508
v -0.006349 -0.164491 0.190342
v 0.006707 -0.167439 0.190156
v 0.006769 -0.167439 0.229322
v -0.020457 -0.076271 0.187627
v -0.020385 -0.076271 0.232626
v -0.016373 -0.050221 0.229652
v -0.016435 -0.050221 0.190486
v 0.007635 -0.076271 0.162643
v -0.008701 -0.076271 0.162877
v -0.007718 -0.050221 0.169529
v 0.006674 -0.050221 0.169324
v -0.007588 -0.050221 0.251424
v -0.008550 -0.076271 0.258105
v 0.007786 -0.076271 0.257871
v 0.006804 -0.050221 0.251218
v 0.017746 -0.076271 0.232081
v 0.017674 -0.076271 0.187082
v 0.015457 -0.050221 0.190030
v 0.015519 -0.050221 0.229197
v -0.007623 -0.036884 0.229527
v 0.006769 -0.036884 0.229322
v 0.006707 -0.036884 0.190156
v -0.007685 -0.036884 0.190361
v -0.006980 -0.134550 0.251769
v 0.000273 -0.149057 0.249508
v 0.000148 -0.149057 0.170822
v 0.018960 -0.118138 0.209564
v 0.017844 -0.142408 0.231351
v -0.016700 -0.134550 0.231844
v -0.019876 -0.118138 0.210119
v -0.016769 -0.134550 0.188304
v -0.014842 -0.149057 0.210047
v -0.006804 -0.166567 0.209932
v 0.007224 -0.169514 0.209732
v 0.000243 -0.166567 0.230874
v -0.021671 -0.076271 0.210144
v -0.017515 -0.049480 0.210085
v -0.018939 -0.061708 0.188334
v 0.000129 -0.076271 0.159000
v -0.008455 -0.061708 0.164540
v 0.000141 -0.049480 0.166084
v 0.007395 -0.061708 0.164313
v -0.008309 -0.061708 0.256434
v 0.000292 -0.076271 0.261728
v 0.007541 -0.061708 0.256208
v 0.000281 -0.049480 0.254645
v 0.017189 -0.061708 0.231360
v 0.018960 -0.076271 0.209564
v 0.016599 -0.049480 0.209598
v 0.000177 -0.035190 0.188790
v -0.008140 -0.035190 0.209951
v 0.013903 -0.118138 0.173804
v 0.014016 -0.118138 0.245038
v 0.014021 -0.157735 0.239725
v -0.014933 -0.118138 0.174216
v -0.010481 -0.147241 0.179465
v 0.017746 -0.100749 0.232081
v 0.007635 -0.100749 0.162643
v -0.008701 -0.100749 0.162877
v 0.007786 -0.100749 0.257871
v -0.008550 -0.100749 0.258105
v -0.020457 -0.100749 0.187627
v 0.006203 -0.158331 0.179226
v -0.010462 -0.158331 0.191859
v -0.013077 -0.041911 0.228147
v -0.013134 -0.041911 0.191898
v -0.014933 -0.076271 0.174216
v -0.013154 -0.050962 0.179503
v -0.014820 -0.076271 0.245450
v -0.007216 -0.041911 0.179418
v 0.006203 -0.041911 0.179226
v 0.006302 -0.041911 0.241330
v 0.013903 -0.076271 0.173804
v 0.012141 -0.050962 0.179142
v 0.014016 -0.076271 0.245038
v 0.012239 -0.050962 0.241245
v 0.012218 -0.041911 0.227785
v -0.007118 -0.041911 0.241521
v 0.012160 -0.041911 0.191536
v -0.013055 -0.050962 0.241606
v -0.005781 -0.158331 0.241502
v 0.006302 -0.158331 0.241330
v -0.005880 -0.158331 0.179399
v -0.010404 -0.158331 0.228109
v 0.014910 -0.168462 0.224226
v 0.014956 -0.168462 0.195684
v -0.020385 -0.100749 0.232626
v 0.017674 -0.100749 0.187082
v -0.010385 -0.147241 0.240074
v -0.014820 -0.118138 0.245450
v 0.013925 -0.157735 0.179116
v 0.000243 -0.035190 0.230874
v 0.007224 -0.035190 0.209732
v 0.017120 -0.061708 0.187819
v -0.018869 -0.061708 0.231876
v 0.000177 -0.166567 0.188790
v 0.007541 -0.134550 0.256208
v 0.000292 -0.118138 0.261728
v 0.007395 -0.134550 0.164313
v 0.000129 -0.118138 0.159000
v -0.007112 -0.134550 0.168769
v 0.017775 -0.142408 0.187810
v 0.018383 -0.159551 0.209572
v 0.000281 -0.134777 0.254821
v 0.000140 -0.134777 0.165510
v 0.019024 -0.142636 0.209563
v -0.017949 -0.134777 0.210091
v 0.000210 -0.168772 0.209832
v -0.020119 -0.061523 0.210122
v 0.000132 -0.061523 0.160771
v 0.000290 -0.061523 0.259957
v 0.018370 -0.061523 0.209572
v 0.000210 -0.033391 0.209832
v 0.014117 -0.142182 0.175129
v 0.014226 -0.142182 0.243707
v -0.013043 -0.134323 0.244096
v -0.013152 -0.134323 0.175518
v 0.018960 -0.100749 0.209564
v 0.000129 -0.100749 0.159000
v 0.000292 -0.100749 0.261728
v -0.021671 -0.100749 0.210144
v 0.015863 -0.170115 0.209608
v 0.000264 -0.159985 0.244072
v 0.000157 -0.159985 0.176656
v -0.011318 -0.159984 0.209997
v -0.013991 -0.040562 0.210035
v -0.014488 -0.061893 0.175537
v -0.014379 -0.061893 0.244116
v 0.000157 -0.040562 0.176656
v 0.000264 -0.040562 0.244072
v 0.013462 -0.061893 0.175138
v 0.013571 -0.061893 0.243716
v 0.013074 -0.040562 0.209648
v 0.013903 -0.100749 0.173804
v 0.014016 -0.100749 0.245038
v -0.014933 -0.100749 0.174216
v -0.014820 -0.100749 0.245450
v 0.013144 -0.162528 0.184509
v 0.013223 -0.162528 0.234355
v -0.008679 -0.154980 0.184821
v -0.008600 -0.154980 0.234666
v -0.011270 -0.044646 0.236199
v -0.011351 -0.044646 0.184859
v 0.010355 -0.044646 0.184549
v 0.010437 -0.044646 0.235888
vn -0.338969 -0.179968 0.923399
vn -0.277779 -0.381634 0.881558
vn -0.069216 -0.335002 0.939665
vn -0.009644 -0.159795 0.987091
vn 0.017060 0.000000 0.999847
vn -0.355968 0.000000 0.934477
vn -0.601123 -0.026215 0.798700
vn -0.618793 -0.180761 0.764428
vn -0.557604 -0.401746 0.726371
vn -0.307688 -0.459822 0.832972
vn -0.072054 -0.442213 0.893979
vn -0.500504 -0.540056 0.676595
vn -0.509995 -0.632313 0.583117
vn -0.319407 -0.677755 0.662252
vn -0.038942 -0.715537 0.697470
vn 0.130314 -0.466750 0.874722
vn 0.251839 -0.233833 0.939055
vn 0.067751 -0.745720 0.662770
vn 0.271462 -0.746422 0.607562
vn 0.470443 -0.512314 0.718436
vn 0.612354 -0.172552 0.771477
vn 0.343944 -0.080874 0.935484
vn 0.657949 -0.019929 0.752770
vn 0.666921 0.000000 0.745079
vn 0.376293 0.000000 0.926481
vn 0.102939 -0.469253 -0.877010
vn -0.073916 -0.451766 -0.889035
vn -0.071505 -0.327799 -0.942015
vn 0.221076 -0.230384 -0.947630
vn 0.588885 -0.175024 -0.788995
vn 0.452254 -0.515366 -0.727866
vn 0.258980 -0.750694 -0.607715
vn 0.049593 -0.740532 -0.670156
vn -0.042512 -0.709799 -0.703085
vn -0.287881 -0.465072 -0.837123
vn -0.262581 -0.368847 -0.891598
vn -0.305155 -0.679617 -0.667043
vn -0.490707 -0.640767 -0.590411
vn -0.486435 -0.542711 -0.684683
vn -0.551012 -0.398236 -0.733299
vn -0.322001 -0.170537 -0.931242
vn -0.017090 -0.152226 -0.988189
vn -0.612873 -0.178533 -0.769707
vn -0.592456 -0.026734 -0.805109
vn -0.338389 0.000000 -0.940977
vn 0.007538 0.000000 -0.999969
vn 0.310099 -0.078005 -0.947478
vn 0.341014 0.000000 -0.940031
vn 0.644520 0.000000 -0.764580
vn 0.634877 -0.020356 -0.772332
vn 0.840114 -0.396802 -0.369732
vn 0.895627 -0.104160 -0.432356
vn 0.997620 -0.068575 -0.003815
vn 0.927671 -0.373363 -0.002380
vn 0.473525 -0.880764 -0.001251
vn 0.398175 -0.852504 -0.338603
vn 0.904080 -0.001495 -0.427351
vn 0.999969 0.003784 -0.004761
vn 0.905667 0.000000 -0.423933
vn 0.999969 0.000000 -0.004761
vn 0.904599 -0.001679 0.426191
vn 0.896329 -0.104312 0.430891
vn 0.906278 0.000000 0.422620
vn 0.836299 -0.398907 0.376049
vn 0.396496 -0.852077 0.341624
vn -0.686972 -0.618397 0.381603
vn -0.807001 -0.430921 0.403729
vn -0.896390 -0.443220 0.004242
vn -0.777093 -0.629353 0.003693
vn -0.593249 -0.804987 0.002808
vn -0.554460 -0.754753 0.350505
vn -0.854579 -0.258370 0.450423
vn -0.949828 -0.312662 0.004517
vn -0.868007 -0.107883 0.484634
vn -0.989074 -0.147313 0.004700
vn -0.862423 -0.258980 -0.434858
vn -0.813929 -0.431715 -0.388714
vn -0.876156 -0.108005 -0.469741
vn -0.694143 -0.619098 -0.367199
vn -0.555376 -0.757469 -0.343089
vn -0.309488 -0.896054 0.318186
vn -0.286996 -0.957915 0.001343
vn -0.072146 -0.997375 0.000336
vn -0.049135 -0.947844 0.314859
vn -0.305032 -0.894711 -0.326212
vn -0.051973 -0.941343 -0.333384
vn 0.015595 -0.933622 -0.357860
vn -0.028016 -0.999603 -0.000488
vn 0.021149 -0.937223 0.348064
vn -0.866909 0.127567 -0.481796
vn -0.988495 0.151067 0.004700
vn -0.903500 0.428541 0.004273
vn -0.806757 0.389660 -0.444136
vn -0.575793 0.309519 -0.756706
vn -0.581591 0.077456 -0.809748
vn -0.858516 0.127506 0.496628
vn -0.803858 0.382214 0.455733
vn -0.590197 0.076998 0.803552
vn -0.590106 0.292123 0.752586
vn -0.678915 0.636128 0.366558
vn -0.747612 0.664083 0.003540
vn -0.512497 0.580218 0.632954
vn -0.389477 0.779382 0.490738
vn -0.452040 0.843501 0.290017
vn -0.486435 0.873684 0.002289
vn -0.672567 0.642628 -0.366894
vn -0.450819 0.839137 -0.304209
vn -0.386792 0.766350 -0.512894
vn -0.496628 0.596515 -0.630451
vn 0.341197 0.061556 -0.937956
vn 0.007569 0.059877 -0.998169
vn 0.008026 0.266671 -0.963744
vn 0.333781 0.275155 -0.901578
vn 0.615162 0.280801 -0.736656
vn 0.642994 0.062563 -0.763268
vn -0.338572 0.061617 -0.938902
vn -0.330576 0.275399 -0.902676
vn -0.283425 0.597797 -0.749840
vn 0.008911 0.599445 -0.800317
vn -0.227515 0.820276 -0.524705
vn 0.008850 0.843257 -0.537370
vn 0.289132 0.596912 -0.748375
vn 0.234413 0.818262 -0.524827
vn 0.381878 0.766350 -0.516556
vn 0.507340 0.584979 -0.632740
vn -0.286203 0.588916 0.755791
vn -0.343577 0.264870 0.900967
vn 0.017212 0.266671 0.963622
vn 0.016511 0.599475 0.800195
vn 0.013825 0.851436 0.524247
vn -0.221839 0.830287 0.511216
vn -0.356120 0.061983 0.932371
vn 0.017060 0.059877 0.998047
vn 0.376385 0.061892 0.924375
vn 0.363811 0.264595 0.893094
vn 0.665304 0.062349 0.743919
vn 0.643117 0.262551 0.719321
vn 0.306162 0.588000 0.748650
vn 0.534623 0.568682 0.625080
vn 0.394116 0.779382 0.487014
vn 0.238533 0.828333 0.506882
vn 0.904080 0.062471 0.422742
vn 0.998169 0.059999 -0.004730
vn 0.963622 0.267129 -0.004578
vn 0.871242 0.268532 0.410810
vn 0.903470 0.062380 -0.424024
vn 0.865963 0.277108 -0.416242
vn 0.715171 0.594440 -0.367626
vn 0.800287 0.599567 -0.003784
vn 0.447920 0.839137 -0.308481
vn 0.486435 0.873684 -0.002289
vn 0.727592 0.587909 0.353404
vn 0.454787 0.843501 0.285714
vn -0.200964 0.944578 0.259499
vn 0.009980 0.969512 0.244789
vn 0.007263 0.999969 -0.000031
vn -0.191046 0.981567 0.000885
vn 0.211890 0.942869 0.257027
vn 0.197913 0.980193 -0.000916
vn 0.211646 0.936857 -0.278298
vn 0.007660 0.965300 -0.260994
vn -0.205725 0.938597 -0.276894
usemtl Green
s 1
f 1//1 41//2 121//3
f 1//1 121//3 115//4
f 1//1 115//4 137//5
f 1//1 137//5 78//6
f 1//1 78//6 154//7
f 1//1 154//7 107//8
f 1//1 107//8 133//9
f 1//1 133//9 41//2
f 2//10 42//11 121//3
f 2//10 121//3 41//2
f 2//10 41//2 133//9
f 2//10 133//9 106//12
f 2//10 106//12 158//13
f 2//10 158//13 98//14
f 2//10 98//14 140//15
f 2//10 140//15 42//11
f 3//16 114//17 121//3
f 3//16 121//3 42//11
f 3//16 42//11 140//15
f 3//16 140//15 99//18
f 3//16 99//18 156//19
f 3//16 156//19 71//20
f 3//16 71//20 132//21
f 3//16 132//21 114//17
f 4//22 115//4 121//3
f 4//22 121//3 114//17
f 4//22 114//17 132//21
f 4//22 132//21 70//23
f 4//22 70//23 152//24
f 4//22 152//24 77//25
f 4//22 77//25 137//5
f 4//22 137//5 115//4
f 5//26 43//27 122//28
f 5//26 122//28 116//29
f 5//26 116//29 131//30
f 5//26 131//30 108//31
f 5//26 108//31 155//32
f 5//26 155//32 80//33
f 5//26 80//33 141//34
f 5//26 141//34 43//27
f 6//35 118//36 122//28
f 6//35 122//28 43//27
f 6//35 43//27 141//34
f 6//35 141//34 100//37
f 6//35 100//37 157//38
f 6//35 157//38 73//39
f 6//35 73//39 134//40
f 6//35 134//40 118//36
f 7//41 117//42 122//28
f 7//41 122//28 118//36
f 7//41 118//36 134//40
f 7//41 134//40 72//43
f 7//41 72//43 153//44
f 7//41 153//44 76//45
f 7//41 76//45 136//46
f 7//41 136//46 117//42
f 8//47 116//29 122//28
f 8//47 122//28 117//42
f 8//47 117//42 136//46
f 8//47 136//46 75//48
f 8//47 75//48 151//49
f 8//47 151//49 69//50
f 8//47 69//50 131//30
f 8//47 131//30 116//29
f 9//51 119//52 123//53
f 9//51 123//53 120//54
f 9//51 120//54 139//55
f 9//51 139//55 103//56
f 9//51 103//56 155//32
f 9//51 155//32 108//31
f 9//51 108//31 131//30
f 9//51 131//30 119//52
f 10//57 44//58 123//53
f 10//57 123//53 119//52
f 10//57 119//52 131//30
f 10//57 131//30 69//50
f 10//57 69//50 151//49
f 10//57 151//49 105//59
f 10//57 105//59 135//60
f 10//57 135//60 44//58
f 11//61 45//62 123//53
f 11//61 123//53 44//58
f 11//61 44//58 135//60
f 11//61 135//60 74//63
f 11//61 74//63 152//24
f 11//61 152//24 70//23
f 11//61 70//23 132//21
f 11//61 132//21 45//62
f 12//64 120//54 123//53
f 12//64 123//53 45//62
f 12//64 45//62 132//21
f 12//64 132//21 71//20
f 12//64 71//20 156//19
f 12//64 156//19 102//65
f 12//64 102//65 139//55
f 12//64 139//55 120//54
f 13//66 46//67 124//68
f 13//66 124//68 49//69
f 13//66 49//69 142//70
f 13//66 142//70 101//71
f 13//66 101//71 158//13
f 13//66 158//13 106//12
f 13//66 106//12 133//9
f 13//66 133//9 46//67
f 14//72 47//73 124//68
f 14//72 124//68 46//67
f 14//72 46//67 133//9
f 14//72 133//9 107//8
f 14//72 107//8 154//7
f 14//72 154//7 104//74
f 14//72 104//74 138//75
f 14//72 138//75 47//73
f 15//76 48//77 124//68
f 15//76 124//68 47//73
f 15//76 47//73 138//75
f 15//76 138//75 79//78
f 15//76 79//78 153//44
f 15//76 153//44 72//43
f 15//76 72//43 134//40
f 15//76 134//40 48//77
f 16//79 49//69 124//68
f 16//79 124//68 48//77
f 16//79 48//77 134//40
f 16//79 134//40 73//39
f 16//79 73//39 157//38
f 16//79 157//38 81//80
f 16//79 81//80 142//70
f 16//79 142//70 49//69
f 17//81 50//82 125//83
f 17//81 125//83 52//84
f 17//81 52//84 140//15
f 17//81 140//15 98//14
f 17//81 98//14 158//13
f 17//81 158//13 101//71
f 17//81 101//71 142//70
f 17//81 142//70 50//82
f 18//85 113//86 125//83
f 18//85 125//83 50//82
f 18//85 50//82 142//70
f 18//85 142//70 81//80
f 18//85 81//80 157//38
f 18//85 157//38 100//37
f 18//85 100//37 141//34
f 18//85 141//34 113//86
f 19//87 51//88 125//83
f 19//87 125//83 113//86
f 19//87 113//86 141//34
f 19//87 141//34 80//33
f 19//87 80//33 155//32
f 19//87 155//32 103//56
f 19//87 103//56 139//55
f 19//87 139//55 51//88
f 20//89 52//84 125//83
f 20//89 125//83 51//88
f 20//89 51//88 139//55
f 20//89 139//55 102//65
f 20//89 102//65 156//19
f 20//89 156//19 99//18
f 20//89 99//18 140//15
f 20//89 140//15 52//84
f 21//90 53//91 126//92
f 21//90 126//92 55//93
f 21//90 55//93 144//94
f 21//90 144//94 84//95
f 21//90 84//95 153//44
f 21//90 153//44 79//78
f 21//90 79//78 138//75
f 21//90 138//75 53//91
f 22//96 112//97 126//92
f 22//96 126//92 53//91
f 22//96 53//91 138//75
f 22//96 138//75 104//74
f 22//96 104//74 154//7
f 22//96 154//7 86//98
f 22//96 86//98 145//99
f 22//96 145//99 112//97
f 23//100 54//101 126//92
f 23//100 126//92 112//97
f 23//100 112//97 145//99
f 23//100 145//99 97//102
f 23//100 97//102 159//103
f 23//100 159//103 82//104
f 23//100 82//104 143//105
f 23//100 143//105 54//101
f 24//106 55//93 126//92
f 24//106 126//92 54//101
f 24//106 54//101 143//105
f 24//106 143//105 83//107
f 24//106 83//107 160//108
f 24//106 160//108 85//109
f 24//106 85//109 144//94
f 24//106 144//94 55//93
f 25//110 56//111 127//112
f 25//110 127//112 59//113
f 25//110 59//113 148//114
f 25//110 148//114 90//115
f 25//110 90//115 151//49
f 25//110 151//49 75//48
f 25//110 75//48 136//46
f 25//110 136//46 56//111
f 26//116 57//117 127//112
f 26//116 127//112 56//111
f 26//116 56//111 136//46
f 26//116 136//46 76//45
f 26//116 76//45 153//44
f 26//116 153//44 84//95
f 26//116 84//95 144//94
f 26//116 144//94 57//117
f 27//118 58//119 127//112
f 27//118 127//112 57//117
f 27//118 57//117 144//94
f 27//118 144//94 85//109
f 27//118 85//109 160//108
f 27//118 160//108 87//120
f 27//118 87//120 146//121
f 27//118 146//121 58//119
f 28//122 59//113 127//112
f 28//122 127//112 58//119
f 28//122 58//119 146//121
f 28//122 146//121 88//123
f 28//122 88//123 161//124
f 28//122 161//124 91//125
f 28//122 91//125 148//114
f 28//122 148//114 59//113
f 29//126 60//127 128//128
f 29//126 128//128 63//129
f 29//126 63//129 147//130
f 29//126 147//130 95//131
f 29//126 95//131 159//103
f 29//126 159//103 97//102
f 29//126 97//102 145//99
f 29//126 145//99 60//127
f 30//132 61//133 128//128
f 30//132 128//128 60//127
f 30//132 60//127 145//99
f 30//132 145//99 86//98
f 30//132 86//98 154//7
f 30//132 154//7 78//6
f 30//132 78//6 137//5
f 30//132 137//5 61//133
f 31//134 62//135 128//128
f 31//134 128//128 61//133
f 31//134 61//133 137//5
f 31//134 137//5 77//25
f 31//134 77//25 152//24
f 31//134 152//24 92//136
f 31//134 92//136 149//137
f 31//134 149//137 62//135
f 32//138 63//129 128//128
f 32//138 128//128 62//135
f 32//138 62//135 149//137
f 32//138 149//137 93//139
f 32//138 93//139 162//140
f 32//138 162//140 89//141
f 32//138 89//141 147//130
f 32//138 147//130 63//129
f 33//142 65//143 129//144
f 33//142 129//144 64//145
f 33//142 64//145 149//137
f 33//142 149//137 92//136
f 33//142 92//136 152//24
f 33//142 152//24 74//63
f 33//142 74//63 135//60
f 33//142 135//60 65//143
f 34//146 111//147 129//144
f 34//146 129//144 65//143
f 34//146 65//143 135//60
f 34//146 135//60 105//59
f 34//146 105//59 151//49
f 34//146 151//49 90//115
f 34//146 90//115 148//114
f 34//146 148//114 111//147
f 35//148 66//149 129//144
f 35//148 129//144 111//147
f 35//148 111//147 148//114
f 35//148 148//114 91//125
f 35//148 91//125 161//124
f 35//148 161//124 96//150
f 35//148 96//150 150//151
f 35//148 150//151 66//149
f 36//152 64//145 129//144
f 36//152 129//144 66//149
f 36//152 66//149 150//151
f 36//152 150//151 94//153
f 36//152 94//153 162//140
f 36//152 162//140 93//139
f 36//152 93//139 149//137
f 36//152 149//137 64//145
f 37//154 109//155 130//156
f 37//154 130//156 68//157
f 37//154 68//157 143//105
f 37//154 143//105 82//104
f 37//154 82//104 159//103
f 37//154 159//103 95//131
f 37//154 95//131 147//130
f 37//154 147//130 109//155
f 38//158 110//159 130//156
f 38//158 130//156 109//155
f 38//158 109//155 147//130
f 38//158 147//130 89//141
f 38//158 89//141 162//140
f 38//158 162//140 94//153
f 38//158 94//153 150//151
f 38//158 150//151 110//159
f 39//160 67//161 130//156
f 39//160 130//156 110//159
f 39//160 110//159 150//151
f 39//160 150//151 96//150
f 39//160 96//150 161//124
f 39//160 161//124 88//123
f 39//160 88//123 146//121
f 39//160 146//121 67//161
f 40//162 68//157 130//156
f 40//162 130//156 67//161
f 40//162 67//161 146//121
f 40//162 146//121 87//120
f 40//162 87//120 160//108
f 40//162 160//108 83//107
f 40//162 83//107 143//105
f 40//162 143//105 68//157