# Blender v2.60 (sub 0) OBJ File: 'humanfigure25.blend'
# www.blender.org
o Mesh.006_Cube-mesh.006
v -0.040908 0.071914 0.223825
v -0.041149 0.133135 0.223825
v -0.041172 0.133135 0.195700
v -0.040931 0.071914 0.195700
v 0.046209 0.133480 0.223754
v 0.046450 0.072259 0.223753
v 0.046427 0.072259 0.195628
v 0.046186 0.133480 0.195629
v -0.016175 0.133234 0.242555
v -0.015933 0.072013 0.242554
v 0.021506 0.072160 0.242524
v 0.021265 0.133381 0.242524
v -0.016228 0.133234 0.176930
v 0.021211 0.133381 0.176899
v 0.021453 0.072160 0.176899
v -0.015987 0.072013 0.176929
v 0.018528 0.199274 0.181068
v 0.021032 0.178788 0.176899
v -0.016407 0.178641 0.176930
v -0.014058 0.199145 0.181095
v -0.014011 0.199145 0.238386
v -0.016354 0.178640 0.242555
v 0.021085 0.178788 0.242524
v 0.018574 0.199274 0.238360
v 0.040401 0.199360 0.221936
v 0.046029 0.178887 0.223754
v 0.046006 0.178887 0.195629
v 0.040381 0.199360 0.197456
v -0.035884 0.199059 0.197519
v -0.041351 0.178542 0.195700
v -0.041328 0.178542 0.223825
v -0.035864 0.199059 0.221998
v -0.014052 0.206085 0.221980
v 0.018534 0.206214 0.221953
v 0.018514 0.206214 0.197474
v -0.014072 0.206085 0.197501
v -0.013257 -0.003898 0.181094
v -0.015791 0.022436 0.176929
v 0.021648 0.022584 0.176899
v 0.019329 -0.003769 0.181067
v 0.019376 -0.003769 0.238359
v 0.021702 0.022584 0.242524
v -0.015737 0.022436 0.242554
v -0.013210 -0.003898 0.238385
v 0.040806 -0.007828 0.197456
v 0.046247 0.018537 0.195629
v 0.046646 0.022683 0.223753
v 0.041202 -0.003683 0.221935
v -0.035063 -0.003984 0.221997
v -0.040712 0.022338 0.223825
v -0.040735 0.022338 0.195700
v -0.035083 -0.003984 0.197518
v -0.013202 -0.014486 0.197500
v 0.019384 -0.014358 0.197473
v 0.019404 -0.014358 0.221953
v -0.013182 -0.014486 0.221979
v -0.041029 0.102785 0.223825
v -0.044281 0.133123 0.209765
v -0.041052 0.102785 0.195700
v -0.044039 0.071902 0.209765
v 0.046328 0.103130 0.223754
v 0.049559 0.072271 0.209688
v 0.046305 0.103130 0.195629
v 0.049317 0.133492 0.209689
v -0.016055 0.102884 0.242554
v 0.002788 0.072087 0.244883
v 0.021384 0.103031 0.242524
v 0.002547 0.133307 0.244883
v 0.002490 0.133308 0.174571
v 0.021331 0.103031 0.176899
v 0.002731 0.072087 0.174570
v -0.016108 0.102884 0.176930
v 0.020376 0.191568 0.177941
v 0.002310 0.178714 0.174571
v -0.015850 0.191425 0.177971
v 0.002232 0.199595 0.178998
v -0.015798 0.191425 0.241513
v 0.002368 0.178714 0.244883
v 0.020427 0.191568 0.241483
v 0.002282 0.199595 0.240456
v 0.044592 0.191664 0.223299
v 0.049138 0.178899 0.209689
v 0.044570 0.191664 0.196086
v 0.043162 0.199756 0.209694
v -0.040015 0.191330 0.196155
v -0.044460 0.178530 0.209765
v -0.039993 0.191330 0.223368
v -0.038649 0.199434 0.209761
v 0.002238 0.207031 0.222878
v 0.019734 0.207100 0.209713
v 0.002217 0.207031 0.196576
v -0.015279 0.206962 0.209741
v -0.015121 0.006631 0.177970
v 0.002927 0.022510 0.174570
v 0.021105 0.006774 0.177941
v 0.003037 -0.004422 0.178997
v 0.021157 0.006773 0.241482
v 0.002984 0.022510 0.244883
v -0.015069 0.006630 0.241512
v 0.003087 -0.004422 0.240455
v 0.044924 0.002724 0.196085
v 0.049379 0.018550 0.209689
v 0.045321 0.006869 0.223299
v 0.043967 -0.004260 0.209693
v -0.039263 0.006535 0.223368
v -0.043843 0.022326 0.209765
v -0.039286 0.006535 0.196154
v -0.037844 -0.004583 0.209760
v 0.003096 -0.015767 0.196575
v 0.020613 -0.015698 0.209712
v 0.003117 -0.015767 0.222877
v -0.014400 -0.015836 0.209741
v -0.040797 0.043954 0.223825
v -0.040820 0.043954 0.195700
v -0.041253 0.159531 0.223825
v -0.041276 0.159531 0.195700
v 0.046560 0.044299 0.223753
v 0.046537 0.044299 0.195628
v 0.046104 0.159876 0.223754
v 0.046081 0.159876 0.195629
v -0.015823 0.044053 0.242554
v 0.021616 0.044201 0.242524
v -0.031538 0.071951 0.235536
v -0.031780 0.133172 0.235536
v -0.016279 0.159630 0.242555
v 0.021160 0.159778 0.242524
v 0.036858 0.133443 0.235480
v 0.037100 0.072222 0.235480
v -0.031580 0.071951 0.183973
v -0.031822 0.133172 0.183974
v -0.015876 0.044053 0.176929
v 0.021563 0.044201 0.176899
v 0.036816 0.133443 0.183918
v 0.037058 0.072222 0.183917
v -0.016332 0.159630 0.176930
v 0.021107 0.159778 0.176899
v 0.036637 0.178850 0.183918
v 0.032141 0.198942 0.187242
v 0.017302 0.203593 0.187254
v -0.012857 0.203474 0.187279
v -0.032001 0.178579 0.183974
v -0.027658 0.198706 0.187291
v -0.031959 0.178579 0.235536
v -0.027621 0.198706 0.232212
v 0.017339 0.203593 0.232176
v -0.012820 0.203474 0.232200
v 0.036679 0.178850 0.235480
v 0.032177 0.198942 0.232164
v 0.032131 0.203651 0.198375
v 0.032150 0.203651 0.221031
v -0.027667 0.203415 0.198423
v -0.027649 0.203415 0.221080
v -0.031385 0.022375 0.183973
v -0.026861 -0.003363 0.187290
v 0.018147 -0.010371 0.187253
v -0.012013 -0.010490 0.187278
v 0.037253 0.022646 0.183917
v 0.032938 -0.003127 0.187241
v 0.037296 0.022646 0.235480
v 0.032975 -0.003127 0.232163
v 0.018183 -0.010371 0.232175
v -0.011976 -0.010490 0.232200
v -0.031343 0.022375 0.235536
v -0.026824 -0.003363 0.232212
v 0.032975 -0.010312 0.198374
v 0.032994 -0.010312 0.221030
v -0.026823 -0.010548 0.198423
v -0.026805 -0.010549 0.221079
v -0.044161 0.102773 0.209765
v 0.049437 0.103142 0.209689
v 0.002667 0.102958 0.244883
v 0.002609 0.102958 0.174570
v 0.002261 0.191593 0.175678
v 0.002316 0.191593 0.243776
v 0.047614 0.191772 0.209690
v -0.043037 0.191414 0.209764
v 0.002224 0.207967 0.209727
v 0.002991 0.006555 0.175677
v 0.003046 0.006555 0.243776
v 0.047968 0.002588 0.209690
v -0.042307 0.006376 0.209763
v 0.003112 -0.017195 0.209726
v -0.043929 0.043942 0.209765
v -0.044385 0.159519 0.209765
v 0.049294 0.040166 0.209689
v 0.049213 0.159889 0.209689
v 0.002899 0.044127 0.244883
v -0.031660 0.102822 0.235536
v 0.002443 0.159704 0.244883
v 0.036978 0.103093 0.235480
v -0.031702 0.102822 0.183974
v 0.002841 0.044127 0.174570
v 0.036936 0.103093 0.183917
v 0.002385 0.159704 0.174571
v 0.035483 0.191532 0.184749
v 0.002219 0.204235 0.185606
v -0.030945 0.191269 0.184803
v -0.030905 0.191269 0.234705
v 0.002258 0.204235 0.233848
v 0.035524 0.191531 0.234651
v 0.034348 0.204362 0.209701
v -0.029871 0.204109 0.209753
v -0.030217 0.006718 0.184802
v 0.003070 -0.011502 0.185605
v 0.035836 0.002835 0.184748
v 0.036252 0.006980 0.234650
v 0.003109 -0.011502 0.233847
v -0.030177 0.006718 0.234705
v 0.035199 -0.011375 0.209700
v -0.029020 -0.011629 0.209753
v -0.031428 0.043991 0.235536
v -0.031884 0.159568 0.235536
v 0.036754 0.159839 0.235480
v 0.037210 0.044262 0.235480
v -0.031470 0.043991 0.183973
v -0.031926 0.159568 0.183974
v 0.036712 0.159839 0.183918
v 0.037168 0.044262 0.183917
v 0.027653 0.202211 0.190609
v -0.023190 0.202010 0.190651
v 0.027684 0.202210 0.228804
v -0.023159 0.202010 0.228845
v 0.028483 -0.008159 0.190608
v -0.022360 -0.008360 0.190650
v 0.028514 -0.008159 0.228803
v -0.022329 -0.008360 0.228844
vn -0.901730 -0.003540 0.432203
vn -0.999969 -0.003937 0.000793
vn -0.612568 -0.002411 0.790399
vn -0.612568 -0.002411 0.790368
vn -0.902463 -0.003540 -0.430738
vn -0.613849 -0.002411 -0.789392
vn 0.902463 0.003540 0.430738
vn 0.999969 0.003937 -0.000793
vn 0.613849 0.002411 0.789392
vn 0.903775 0.001923 0.427931
vn 0.999969 0.000671 -0.000793
vn 0.906339 0.001617 0.422468
vn 0.999969 -0.001160 -0.005097
vn 0.903073 0.001923 -0.429426
vn 0.901730 0.003540 -0.432203
vn 0.905576 -0.001709 -0.424116
vn 0.614429 0.000732 -0.788934
vn 0.612568 0.002411 -0.790399
vn 0.612568 0.002411 -0.790368
vn -0.269784 -0.001068 0.962889
vn 0.000793 0.000000 0.999969
vn -0.269784 -0.001038 0.962889
vn 0.271371 0.001038 0.962462
vn -0.271371 -0.001038 -0.962462
vn -0.000793 0.000000 -0.999969
vn 0.269784 0.001038 -0.962889
vn 0.269784 0.001068 -0.962889
vn 0.216132 0.631428 -0.744682
vn 0.266610 0.254250 -0.929655
vn -0.001709 0.239570 -0.970855
vn -0.003082 0.624134 -0.781304
vn -0.003906 0.905759 -0.423719
vn 0.150639 0.899503 -0.410077
vn 0.275307 0.882839 -0.380444
vn 0.455123 0.656270 -0.601764
vn 0.590075 0.284219 -0.755638
vn 0.270638 0.046419 -0.961547
vn -0.000977 0.043062 -0.999054
vn 0.613147 0.053957 -0.788110
vn -0.272591 0.044282 -0.961089
vn -0.270119 0.252144 -0.929197
vn -0.614826 0.049104 -0.787103
vn -0.593524 0.279550 -0.754662
vn -0.222327 0.629688 -0.744316
vn -0.461287 0.652638 -0.601001
vn -0.282876 0.880642 -0.379986
vn -0.158391 0.898282 -0.409833
vn -0.221107 0.629688 0.744682
vn -0.268593 0.252144 0.929655
vn -0.000153 0.239570 0.970855
vn -0.001801 0.624134 0.781304
vn -0.003204 0.905759 0.423719
vn -0.157720 0.898282 0.410077
vn -0.282235 0.880642 0.380444
vn -0.460311 0.652638 0.601764
vn -0.592303 0.279550 0.755638
vn -0.271004 0.044282 0.961547
vn 0.000641 0.043062 0.999054
vn -0.613544 0.049104 0.788110
vn 0.272225 0.046419 0.961089
vn 0.268105 0.254250 0.929197
vn 0.614429 0.053957 0.787103
vn 0.591296 0.284219 0.754662
vn 0.217353 0.631428 0.744316
vn 0.456099 0.656270 0.601032
vn 0.275918 0.882839 0.379986
vn 0.151311 0.899503 0.409833
vn 0.643605 0.691549 0.327830
vn 0.858760 0.302652 0.413373
vn 0.951811 0.306619 -0.000763
vn 0.708029 0.706137 -0.000549
vn 0.338816 0.940825 -0.000244
vn 0.318033 0.923032 0.216346
vn 0.901089 0.059450 0.429518
vn 0.998138 0.060884 -0.000793
vn 0.900388 0.059450 -0.430982
vn 0.858089 0.302652 -0.414777
vn 0.643055 0.691549 -0.328867
vn 0.317667 0.923032 -0.216865
vn -0.649037 0.686453 -0.327830
vn -0.861110 0.295877 -0.413373
vn -0.954192 0.299112 0.000763
vn -0.713584 0.700552 0.000580
vn -0.346233 0.938139 0.000275
vn -0.325297 0.920499 -0.216346
vn -0.901517 0.052339 -0.429518
vn -0.998566 0.053011 0.000793
vn -0.900815 0.052339 0.430982
vn -0.860439 0.295877 0.414777
vn -0.648518 0.686453 0.328867
vn -0.324961 0.920499 0.216865
vn -0.135197 0.975311 0.174566
vn -0.003754 0.986114 0.165838
vn -0.003937 0.999969 0.000000
vn -0.131504 0.991302 0.000092
vn 0.127781 0.976348 0.174352
vn 0.123692 0.992309 -0.000092
vn 0.127506 0.976348 -0.174566
vn -0.003998 0.986114 -0.165838
vn -0.135502 0.975311 -0.174352
vn -0.246467 -0.508225 -0.825159
vn -0.272042 -0.195898 -0.942106
vn -0.000061 -0.183508 -0.983001
vn 0.001251 -0.502060 -0.864803
vn 0.002777 -0.824915 -0.565203
vn -0.204993 -0.811853 -0.546678
vn -0.371593 -0.778619 -0.505600
vn -0.514389 -0.533586 -0.671316
vn -0.600879 -0.221473 -0.768029
vn -0.272195 -0.037812 -0.961486
vn -0.000671 -0.034852 -0.999390
vn -0.614429 -0.044221 -0.787683
vn 0.269906 -0.034516 -0.962249
vn 0.260475 -0.195532 -0.945463
vn 0.615345 -0.036012 -0.787408
vn 0.574816 -0.256050 -0.777154
vn 0.235359 -0.518967 -0.821711
vn 0.447645 -0.564501 -0.693472
vn 0.316996 -0.794397 -0.518082
vn 0.210486 -0.810205 -0.547014
vn 0.250465 -0.506272 0.825159
vn 0.273568 -0.193762 0.942106
vn 0.001526 -0.183508 0.983001
vn 0.002686 -0.502060 0.864803
vn 0.003693 -0.824915 0.565203
vn 0.211402 -0.810205 0.546678
vn 0.377728 -0.775658 0.505600
vn 0.518601 -0.529496 0.671316
vn 0.602588 -0.216742 0.768029
vn 0.272469 -0.035676 0.961486
vn 0.000946 -0.034852 0.999390
vn 0.614765 -0.039369 0.787683
vn -0.270608 -0.037812 0.961913
vn -0.270486 -0.195898 0.942564
vn -0.613147 -0.044221 0.788690
vn -0.599628 -0.221473 0.769005
vn -0.245094 -0.508225 0.825587
vn -0.513291 -0.533555 0.672140
vn -0.370769 -0.778619 0.506211
vn -0.204108 -0.811853 0.547014
vn 0.639485 -0.696005 -0.326487
vn 0.868496 -0.261727 -0.420942
vn 0.960540 -0.276803 0.026856
vn 0.781976 -0.620289 0.060884
vn 0.441237 -0.896268 0.044221
vn 0.355663 -0.893429 -0.274331
vn 0.902615 -0.048647 -0.427656
vn 0.998810 -0.048402 -0.003327
vn 0.905423 -0.037629 0.422773
vn 0.872372 -0.228156 0.432264
vn 0.718314 -0.580309 0.383679
vn 0.443709 -0.846644 0.293710
vn -0.728416 -0.574267 0.373577
vn -0.874142 -0.237068 0.423872
vn -0.970672 -0.240333 0.000793
vn -0.804285 -0.594226 0.000641
vn -0.470473 -0.882382 0.000366
vn -0.436537 -0.850124 0.294412
vn -0.900784 -0.048891 0.431440
vn -0.998718 -0.050111 0.000793
vn -0.901517 -0.048891 -0.429945
vn -0.874813 -0.237068 -0.422437
vn -0.729026 -0.574267 -0.372387
vn -0.436995 -0.850124 -0.293710
vn -0.188299 -0.948790 -0.253609
vn 0.003601 -0.969451 -0.245155
vn 0.003937 -0.999969 0.000000
vn -0.186773 -0.982391 0.000122
vn 0.195349 -0.947264 -0.253945
vn 0.194525 -0.980895 -0.000153
vn 0.195776 -0.947264 0.253609
vn 0.003998 -0.969451 0.245155
vn -0.187872 -0.948790 0.253914
usemtl Yellow
s 1
f 1//1 57//1 169//2
f 1//1 169//2 60//2
f 1//1 60//2 183//2
f 1//1 183//2 113//1
f 1//1 113//1 211//3
f 1//1 211//3 123//4
f 1//1 123//4 188//3
f 1//1 188//3 57//1
f 2//1 58//2 169//2
f 2//1 169//2 57//1
f 2//1 57//1 188//3
f 2//1 188//3 124//3
f 2//1 124//3 212//3
f 2//1 212//3 115//1
f 2//1 115//1 184//2
f 2//1 184//2 58//2
f 3//5 59//5 169//2
f 3//5 169//2 58//2
f 3//5 58//2 184//2
f 3//5 184//2 116//5
f 3//5 116//5 216//6
f 3//5 216//6 130//6
f 3//5 130//6 191//6
f 3//5 191//6 59//5
f 4//5 60//2 169//2
f 4//5 169//2 59//5
f 4//5 59//5 191//6
f 4//5 191//6 129//6
f 4//5 129//6 215//6
f 4//5 215//6 114//5
f 4//5 114//5 183//2
f 4//5 183//2 60//2
f 5//7 61//7 170//8
f 5//7 170//8 64//8
f 5//7 64//8 186//8
f 5//7 186//8 119//7
f 5//7 119//7 213//9
f 5//7 213//9 127//9
f 5//7 127//9 190//9
f 5//7 190//9 61//7
f 6//10 62//11 170//8
f 6//10 170//8 61//7
f 6//10 61//7 190//9
f 6//10 190//9 128//9
f 6//10 128//9 214//9
f 6//10 214//9 117//12
f 6//10 117//12 185//13
f 6//10 185//13 62//11
f 7//14 63//15 170//8
f 7//14 170//8 62//11
f 7//14 62//11 185//13
f 7//14 185//13 118//16
f 7//14 118//16 218//17
f 7//14 218//17 134//18
f 7//14 134//18 193//18
f 7//14 193//18 63//15
f 8//15 64//8 170//8
f 8//15 170//8 63//15
f 8//15 63//15 193//18
f 8//15 193//18 133//18
f 8//15 133//18 217//19
f 8//15 217//19 120//15
f 8//15 120//15 186//8
f 8//15 186//8 64//8
f 9//20 65//20 171//21
f 9//20 171//21 68//21
f 9//20 68//21 189//21
f 9//20 189//21 125//22
f 9//20 125//22 212//3
f 9//20 212//3 124//3
f 9//20 124//3 188//3
f 9//20 188//3 65//20
f 10//22 66//21 171//21
f 10//22 171//21 65//20
f 10//22 65//20 188//3
f 10//22 188//3 123//4
f 10//22 123//4 211//3
f 10//22 211//3 121//20
f 10//22 121//20 187//21
f 10//22 187//21 66//21
f 11//23 67//23 171//21
f 11//23 171//21 66//21
f 11//23 66//21 187//21
f 11//23 187//21 122//23
f 11//23 122//23 214//9
f 11//23 214//9 128//9
f 11//23 128//9 190//9
f 11//23 190//9 67//23
f 12//23 68//21 171//21
f 12//23 171//21 67//23
f 12//23 67//23 190//9
f 12//23 190//9 127//9
f 12//23 127//9 213//9
f 12//23 213//9 126//23
f 12//23 126//23 189//21
f 12//23 189//21 68//21
f 13//24 69//25 172//25
f 13//24 172//25 72//24
f 13//24 72//24 191//6
f 13//24 191//6 130//6
f 13//24 130//6 216//6
f 13//24 216//6 135//24
f 13//24 135//24 194//25
f 13//24 194//25 69//25
f 14//26 70//26 172//25
f 14//26 172//25 69//25
f 14//26 69//25 194//25
f 14//26 194//25 136//27
f 14//26 136//27 217//19
f 14//26 217//19 133//18
f 14//26 133//18 193//18
f 14//26 193//18 70//26
f 15//27 71//25 172//25
f 15//27 172//25 70//26
f 15//27 70//26 193//18
f 15//27 193//18 134//18
f 15//27 134//18 218//17
f 15//27 218//17 132//26
f 15//27 132//26 192//25
f 15//27 192//25 71//25
f 16//24 72//24 172//25
f 16//24 172//25 71//25
f 16//24 71//25 192//25
f 16//24 192//25 131//24
f 16//24 131//24 215//6
f 16//24 215//6 129//6
f 16//24 129//6 191//6
f 16//24 191//6 72//24
f 17//28 73//29 173//30
f 17//28 173//30 76//31
f 17//28 76//31 196//32
f 17//28 196//32 139//33
f 17//28 139//33 219//34
f 17//28 219//34 138//35
f 17//28 138//35 195//36
f 17//28 195//36 73//29
f 18//37 74//38 173//30
f 18//37 173//30 73//29
f 18//37 73//29 195//36
f 18//37 195//36 137//39
f 18//37 137//39 217//19
f 18//37 217//19 136//27
f 18//37 136//27 194//25
f 18//37 194//25 74//38
f 19//40 75//41 173//30
f 19//40 173//30 74//38
f 19//40 74//38 194//25
f 19//40 194//25 135//24
f 19//40 135//24 216//6
f 19//40 216//6 141//42
f 19//40 141//42 197//43
f 19//40 197//43 75//41
f 20//44 76//31 173//30
f 20//44 173//30 75//41
f 20//44 75//41 197//43
f 20//44 197//43 142//45
f 20//44 142//45 220//46
f 20//44 220//46 140//47
f 20//44 140//47 196//32
f 20//44 196//32 76//31
f 21//48 77//49 174//50
f 21//48 174//50 80//51
f 21//48 80//51 199//52
f 21//48 199//52 146//53
f 21//48 146//53 222//54
f 21//48 222//54 144//55
f 21//48 144//55 198//56
f 21//48 198//56 77//49
f 22//57 78//58 174//50
f 22//57 174//50 77//49
f 22//57 77//49 198//56
f 22//57 198//56 143//59
f 22//57 143//59 212//3
f 22//57 212//3 125//22
f 22//57 125//22 189//21
f 22//57 189//21 78//58
f 23//60 79//61 174//50
f 23//60 174//50 78//58
f 23//60 78//58 189//21
f 23//60 189//21 126//23
f 23//60 126//23 213//9
f 23//60 213//9 147//62
f 23//60 147//62 200//63
f 23//60 200//63 79//61
f 24//64 80//51 174//50
f 24//64 174//50 79//61
f 24//64 79//61 200//63
f 24//64 200//63 148//65
f 24//64 148//65 221//66
f 24//64 221//66 145//67
f 24//64 145//67 199//52
f 24//64 199//52 80//51
f 25//68 81//69 175//70
f 25//68 175//70 84//71
f 25//68 84//71 201//72
f 25//68 201//72 150//73
f 25//68 150//73 221//66
f 25//68 221//66 148//65
f 25//68 148//65 200//63
f 25//68 200//63 81//69
f 26//74 82//75 175//70
f 26//74 175//70 81//69
f 26//74 81//69 200//63
f 26//74 200//63 147//62
f 26//74 147//62 213//9
f 26//74 213//9 119//7
f 26//74 119//7 186//8
f 26//74 186//8 82//75
f 27//76 83//77 175//70
f 27//76 175//70 82//75
f 27//76 82//75 186//8
f 27//76 186//8 120//15
f 27//76 120//15 217//19
f 27//76 217//19 137//39
f 27//76 137//39 195//36
f 27//76 195//36 83//77
f 28//78 84//71 175//70
f 28//78 175//70 83//77
f 28//78 83//77 195//36
f 28//78 195//36 138//35
f 28//78 138//35 219//34
f 28//78 219//34 149//79
f 28//78 149//79 201//72
f 28//78 201//72 84//71
f 29//80 85//81 176//82
f 29//80 176//82 88//83
f 29//80 88//83 202//84
f 29//80 202//84 151//85
f 29//80 151//85 220//46
f 29//80 220//46 142//45
f 29//80 142//45 197//43
f 29//80 197//43 85//81
f 30//86 86//87 176//82
f 30//86 176//82 85//81
f 30//86 85//81 197//43
f 30//86 197//43 141//42
f 30//86 141//42 216//6
f 30//86 216//6 116//5
f 30//86 116//5 184//2
f 30//86 184//2 86//87
f 31//88 87//89 176//82
f 31//88 176//82 86//87
f 31//88 86//87 184//2
f 31//88 184//2 115//1
f 31//88 115//1 212//3
f 31//88 212//3 143//59
f 31//88 143//59 198//56
f 31//88 198//56 87//89
f 32//90 88//83 176//82
f 32//90 176//82 87//89
f 32//90 87//89 198//56
f 32//90 198//56 144//55
f 32//90 144//55 222//54
f 32//90 222//54 152//91
f 32//90 152//91 202//84
f 32//90 202//84 88//83
f 33//92 89//93 177//94
f 33//92 177//94 92//95
f 33//92 92//95 202//84
f 33//92 202//84 152//91
f 33//92 152//91 222//54
f 33//92 222//54 146//53
f 33//92 146//53 199//52
f 33//92 199//52 89//93
f 34//96 90//97 177//94
f 34//96 177//94 89//93
f 34//96 89//93 199//52
f 34//96 199//52 145//67
f 34//96 145//67 221//66
f 34//96 221//66 150//73
f 34//96 150//73 201//72
f 34//96 201//72 90//97
f 35//98 91//99 177//94
f 35//98 177//94 90//97
f 35//98 90//97 201//72
f 35//98 201//72 149//79
f 35//98 149//79 219//34
f 35//98 219//34 139//33
f 35//98 139//33 196//32
f 35//98 196//32 91//99
f 36//100 92//95 177//94
f 36//100 177//94 91//99
f 36//100 91//99 196//32
f 36//100 196//32 140//47
f 36//100 140//47 220//46
f 36//100 220//46 151//85
f 36//100 151//85 202//84
f 36//100 202//84 92//95
f 37//101 93//102 178//103
f 37//101 178//103 96//104
f 37//101 96//104 204//105
f 37//101 204//105 156//106
f 37//101 156//106 224//107
f 37//101 224//107 154//108
f 37//101 154//108 203//109
f 37//101 203//109 93//102
f 38//110 94//111 178//103
f 38//110 178//103 93//102
f 38//110 93//102 203//109
f 38//110 203//109 153//112
f 38//110 153//112 215//6
f 38//110 215//6 131//24
f 38//110 131//24 192//25
f 38//110 192//25 94//111
f 39//113 95//114 178//103
f 39//113 178//103 94//111
f 39//113 94//111 192//25
f 39//113 192//25 132//26
f 39//113 132//26 218//17
f 39//113 218//17 157//115
f 39//113 157//115 205//116
f 39//113 205//116 95//114
f 40//117 96//104 178//103
f 40//117 178//103 95//114
f 40//117 95//114 205//116
f 40//117 205//116 158//118
f 40//117 158//118 223//119
f 40//117 223//119 155//120
f 40//117 155//120 204//105
f 40//117 204//105 96//104
f 41//121 97//122 179//123
f 41//121 179//123 100//124
f 41//121 100//124 207//125
f 41//121 207//125 161//126
f 41//121 161//126 225//127
f 41//121 225//127 160//128
f 41//121 160//128 206//129
f 41//121 206//129 97//122
f 42//130 98//131 179//123
f 42//130 179//123 97//122
f 42//130 97//122 206//129
f 42//130 206//129 159//132
f 42//130 159//132 214//9
f 42//130 214//9 122//23
f 42//130 122//23 187//21
f 42//130 187//21 98//131
f 43//133 99//134 179//123
f 43//133 179//123 98//131
f 43//133 98//131 187//21
f 43//133 187//21 121//20
f 43//133 121//20 211//3
f 43//133 211//3 163//135
f 43//133 163//135 208//136
f 43//133 208//136 99//134
f 44//137 100//124 179//123
f 44//137 179//123 99//134
f 44//137 99//134 208//136
f 44//137 208//136 164//138
f 44//137 164//138 226//139
f 44//137 226//139 162//140
f 44//137 162//140 207//125
f 44//137 207//125 100//124
f 45//141 101//142 180//143
f 45//141 180//143 104//144
f 45//141 104//144 209//145
f 45//141 209//145 165//146
f 45//141 165//146 223//119
f 45//141 223//119 158//118
f 45//141 158//118 205//116
f 45//141 205//116 101//142
f 46//147 102//148 180//143
f 46//147 180//143 101//142
f 46//147 101//142 205//116
f 46//147 205//116 157//115
f 46//147 157//115 218//17
f 46//147 218//17 118//16
f 46//147 118//16 185//13
f 46//147 185//13 102//148
f 47//149 103//150 180//143
f 47//149 180//143 102//148
f 47//149 102//148 185//13
f 47//149 185//13 117//12
f 47//149 117//12 214//9
f 47//149 214//9 159//132
f 47//149 159//132 206//129
f 47//149 206//129 103//150
f 48//151 104//144 180//143
f 48//151 180//143 103//150
f 48//151 103//150 206//129
f 48//151 206//129 160//128
f 48//151 160//128 225//127
f 48//151 225//127 166//152
f 48//151 166//152 209//145
f 48//151 209//145 104//144
f 49//153 105//154 181//155
f 49//153 181//155 108//156
f 49//153 108//156 210//157
f 49//153 210//157 168//158
f 49//153 168//158 226//139
f 49//153 226//139 164//138
f 49//153 164//138 208//136
f 49//153 208//136 105//154
f 50//159 106//160 181//155
f 50//159 181//155 105//154
f 50//159 105//154 208//136
f 50//159 208//136 163//135
f 50//159 163//135 211//3
f 50//159 211//3 113//1
f 50//159 113//1 183//2
f 50//159 183//2 106//160
f 51//161 107//162 181//155
f 51//161 181//155 106//160
f 51//161 106//160 183//2
f 51//161 183//2 114//5
f 51//161 114//5 215//6
f 51//161 215//6 153//112
f 51//161 153//112 203//109
f 51//161 203//109 107//162
f 52//163 108//156 181//155
f 52//163 181//155 107//162
f 52//163 107//162 203//109
f 52//163 203//109 154//108
f 52//163 154//108 224//107
f 52//163 224//107 167//164
f 52//163 167//164 210//157
f 52//163 210//157 108//156
f 53//165 109//166 182//167
f 53//165 182//167 112//168
f 53//165 112//168 210//157
f 53//165 210//157 167//164
f 53//165 167//164 224//107
f 53//165 224//107 156//106
f 53//165 156//106 204//105
f 53//165 204//105 109//166
f 54//169 110//170 182//167
f 54//169 182//167 109//166
f 54//169 109//166 204//105
f 54//169 204//105 155//120
f 54//169 155//120 223//119
f 54//169 223//119 165//146
f 54//169 165//146 209//145
f 54//169 209//145 110//170
f 55//171 111//172 182//167
f 55//171 182//167 110//170
f 55//171 110//170 209//145
f 55//171 209//145 166//152
f 55//171 166//152 225//127
f 55//171 225//127 161//126
f 55//171 161//126 207//125
f 55//171 207//125 111//172
f 56//173 112//168 182//167
f 56//173 182//167 111//172
f 56//173 111//172 207//125
f 56//173 207//125 162//140
f 56//173 162//140 226//139
f 56//173 226//139 168//158
f 56//173 168//158 210//157
f 56//173 210//157 112//168
