# Blender v2.60 (sub 0) OBJ File: 'humanfigure25.blend'
# www.blender.org
o Mesh.016_Cube-mesh.016
v 0.041482 -0.007728 -0.020832
v 0.041678 -0.007728 0.020436
v -0.048958 -0.007728 0.020868
v -0.049154 -0.007728 -0.020401
v 0.101163 0.007866 -0.029081
v 0.115995 0.037575 -0.046437
v 0.116431 0.037575 0.045331
v 0.101436 0.007866 0.028116
v 0.040244 0.007866 0.063523
v 0.045562 0.037575 0.106848
v -0.061178 0.037575 0.107357
v -0.051704 0.007866 0.063960
v -0.062198 0.037575 -0.106769
v 0.044543 0.037575 -0.107277
v 0.039637 0.007866 -0.063903
v -0.052311 0.007866 -0.063465
v -0.113231 0.007866 0.029138
v -0.132630 0.037575 0.046517
v -0.133067 0.037575 -0.045251
v -0.113503 0.007866 -0.028058
v 0.046260 0.074230 -0.135160
v -0.058261 0.074230 -0.134663
v -0.042531 0.122784 -0.133158
v 0.044895 0.122784 -0.133575
v -0.041261 0.122784 0.133557
v -0.056976 0.074230 0.135211
v 0.047545 0.074230 0.134714
v 0.046165 0.122784 0.133141
v -0.127575 0.074230 -0.057224
v -0.127024 0.074230 0.058436
v -0.099655 0.122784 0.057456
v -0.100197 0.122784 -0.056504
v 0.116858 0.074230 0.057275
v 0.116308 0.074230 -0.058385
v 0.103289 0.122784 -0.057473
v 0.103832 0.122784 0.056487
v 0.048748 0.131691 -0.057214
v -0.035887 0.131691 -0.056811
v -0.035344 0.131691 0.057150
v 0.049291 0.131691 0.056747
v -0.003546 -0.009709 -0.020799
v -0.052028 -0.009709 0.000248
v 0.112344 0.021110 -0.037619
v 0.125108 0.037575 -0.000596
v 0.112697 0.021110 0.036547
v 0.109120 0.006999 -0.000520
v 0.044362 0.021110 0.085563
v -0.007772 0.037575 0.114750
v -0.005587 0.006999 0.066999
v -0.141744 0.037575 0.000675
v -0.127619 0.021110 -0.036476
v -0.120932 0.006999 0.000576
v -0.127266 0.021110 0.037690
v 0.043545 0.021110 -0.085982
v -0.008864 0.037575 -0.114670
v -0.006047 0.074230 -0.144550
v 0.001407 0.123278 -0.143067
v 0.047017 0.102859 -0.135886
v -0.117422 0.102859 -0.057541
v -0.136010 0.074230 0.000648
v -0.116869 0.102859 0.058657
v -0.106813 0.123278 0.000509
v -0.004670 0.074230 0.144601
v 0.048309 0.102859 0.135432
v 0.002770 0.123278 0.143047
v 0.125293 0.074230 -0.000597
v 0.113271 0.102859 -0.058640
v 0.110990 0.123278 -0.000528
v 0.113825 0.102859 0.057559
v 0.007031 0.132822 -0.061258
v 0.007614 0.132822 0.061189
v 0.052554 0.132822 -0.000250
v 0.037814 -0.001850 0.041542
v -0.047021 -0.001850 -0.041498
v 0.078771 -0.001850 -0.022820
v 0.078984 -0.001850 0.022069
v -0.088191 -0.001850 -0.022025
v -0.087977 -0.001850 0.022864
v 0.116016 0.055776 -0.053904
v 0.116524 0.055776 0.052797
v 0.045929 0.055776 0.124268
v -0.132252 0.055776 -0.052722
v -0.131743 0.055776 0.053979
v 0.044743 0.055776 -0.124700
v 0.078386 0.008732 0.051304
v 0.089928 0.037575 0.083694
v 0.077893 0.008732 -0.052048
v 0.089127 0.037575 -0.084547
v -0.090708 0.008732 -0.051245
v -0.106564 0.037575 -0.083615
v -0.090216 0.008732 0.052107
v -0.105763 0.037575 0.084626
v -0.100665 0.074230 0.106504
v -0.078033 0.122289 0.104939
v 0.044115 0.128333 -0.104777
v 0.089948 0.074230 -0.106453
v 0.081125 0.122289 -0.104953
v -0.101674 0.074230 -0.105540
v -0.079029 0.122289 -0.104191
v -0.073221 0.128333 0.053087
v -0.073723 0.128333 -0.052387
v 0.090957 0.074230 0.105591
v 0.082121 0.122289 0.104176
v 0.045111 0.128333 0.104352
v 0.083444 0.128333 0.052341
v 0.082942 0.128333 -0.053133
v -0.035390 0.128333 -0.104399
v -0.034394 0.128333 0.104731
v -0.060471 0.055776 0.124775
v -0.061657 0.055776 -0.124193
v -0.046624 -0.001850 0.041944
v 0.037417 -0.001850 -0.041900
v -0.037909 0.132822 0.000181
v -0.051906 0.102859 -0.135414
v -0.050614 0.102859 0.135903
v -0.058466 0.021110 0.086053
v -0.059283 0.021110 -0.085492
v -0.006225 0.006999 -0.066943
v -0.003347 -0.009709 0.020832
v 0.045134 -0.009709 -0.000215
v -0.003137 -0.011813 0.000015
v 0.121129 0.020893 -0.000577
v -0.006993 0.020893 0.091611
v -0.135987 0.020893 0.000648
v -0.007865 0.020893 -0.091540
v -0.002423 0.103088 -0.145380
v -0.125290 0.103088 0.000597
v -0.001039 0.103088 0.145397
v 0.121828 0.103088 -0.000580
v 0.007982 0.134024 -0.000038
v -0.004168 -0.003428 0.042783
v -0.004575 -0.003428 -0.042741
v 0.085112 -0.003428 -0.000405
v -0.093854 -0.003428 0.000447
v 0.125136 0.055776 -0.000596
v -0.007229 0.055776 0.133413
v -0.140864 0.055776 0.000671
v -0.008499 0.055776 -0.133338
v 0.087093 0.021327 0.067383
v 0.086447 0.021327 -0.068210
v -0.102078 0.021327 -0.067312
v -0.101433 0.021327 0.068281
v -0.092023 0.102630 0.106979
v 0.004820 0.129234 -0.112319
v 0.088290 0.102630 -0.106961
v -0.093038 0.102630 -0.106098
v -0.078409 0.129234 0.000373
v 0.089304 0.102630 0.106116
v 0.005890 0.129234 0.112268
v 0.089119 0.129234 -0.000424
v 0.066004 0.001348 -0.039251
v 0.066375 0.001348 0.038620
v -0.076524 0.001348 -0.038572
v -0.076153 0.001348 0.039299
v 0.089204 0.055776 -0.098236
v 0.090135 0.055776 0.097382
v -0.105863 0.055776 -0.097307
v -0.104932 0.055776 0.098311
v -0.062926 0.126507 0.089207
v -0.063773 0.126507 -0.088604
v 0.071491 0.126507 0.088567
v 0.070644 0.126507 -0.089244
vn 0.092563 -0.976409 -0.195013
vn 0.104007 -0.994568 -0.000488
vn 0.000671 -0.999969 0.000000
vn -0.000275 -0.982025 -0.188635
vn -0.001038 -0.941557 -0.336802
vn 0.085604 -0.936460 -0.340129
vn 0.173406 -0.924680 -0.338939
vn 0.241981 -0.944975 -0.220099
vn 0.286233 -0.958129 -0.001343
vn 0.094424 -0.976409 0.194128
vn 0.001495 -0.982025 0.188604
vn 0.244057 -0.944975 0.217780
vn 0.176611 -0.924680 0.337260
vn 0.088839 -0.936460 0.339274
vn 0.002136 -0.941557 0.336802
vn -0.088839 -0.977752 0.189978
vn -0.099277 -0.995056 0.000458
vn -0.082430 -0.939482 0.332499
vn -0.163976 -0.931516 0.324564
vn -0.224128 -0.952269 0.207099
vn -0.261177 -0.965270 0.001221
vn -0.090640 -0.977752 -0.189123
vn -0.226112 -0.952269 -0.204962
vn -0.167058 -0.931516 -0.323008
vn -0.085574 -0.939482 -0.331706
vn 0.494034 -0.822840 -0.280709
vn 0.751366 -0.562151 -0.345500
vn 0.876553 -0.481277 -0.004151
vn 0.589343 -0.807855 -0.002777
vn 0.282968 -0.858547 -0.427534
vn 0.440046 -0.720634 -0.535691
vn 0.881771 -0.293161 -0.369457
vn 0.987579 -0.156896 -0.004700
vn 0.567827 -0.552355 -0.610248
vn 0.646077 -0.402478 -0.648488
vn 0.922117 -0.154729 -0.354534
vn 0.999359 -0.035432 -0.004730
vn 0.885250 -0.293161 0.361064
vn 0.754631 -0.562151 0.338328
vn 0.925474 -0.154729 0.345744
vn 0.652242 -0.402478 0.642293
vn 0.573626 -0.552355 0.604816
vn 0.445143 -0.720634 0.531480
vn 0.496689 -0.822840 0.276009
vn 0.287027 -0.858547 0.424818
vn 0.112796 -0.884426 0.452803
vn 0.164953 -0.811792 0.560106
vn 0.002716 -0.834773 0.550554
vn 0.002564 -0.893155 0.449690
vn 0.227271 -0.713095 0.663167
vn 0.001740 -0.752220 0.658864
vn 0.290475 -0.565966 0.771538
vn -0.002106 -0.601337 0.798975
vn -0.224921 -0.711600 0.665548
vn -0.156102 -0.819605 0.551195
vn -0.305887 -0.520218 0.797327
vn -0.682455 -0.290780 0.670583
vn -0.574664 -0.547960 0.607807
vn -0.420515 -0.748192 0.513138
vn -0.104556 -0.890347 0.443068
vn -0.263253 -0.875668 0.404797
vn -0.231269 -0.711600 -0.663381
vn -0.004486 -0.752220 -0.658864
vn -0.002503 -0.834773 -0.550554
vn -0.161351 -0.819605 -0.549699
vn -0.425367 -0.748192 -0.509110
vn -0.580432 -0.547960 -0.602313
vn -0.688803 -0.290780 -0.664052
vn -0.313486 -0.520218 -0.794397
vn -0.009705 -0.601337 -0.798914
vn 0.220954 -0.713095 -0.665304
vn 0.159612 -0.811792 -0.561663
vn 0.283120 -0.565966 -0.774255
vn 0.108463 -0.884426 -0.453841
vn -0.001709 -0.893155 -0.449690
vn -0.108768 -0.890347 -0.442061
vn -0.267098 -0.875668 -0.402264
vn -0.446394 -0.856655 0.258522
vn -0.710257 -0.624744 0.324351
vn -0.826472 -0.562944 0.003906
vn -0.527665 -0.849422 0.002503
vn -0.881649 -0.300729 0.363628
vn -0.984161 -0.177129 0.004669
vn -0.933561 -0.004822 0.358348
vn -0.992615 0.121128 0.004700
vn -0.885067 -0.300729 -0.355205
vn -0.713309 -0.624744 -0.317576
vn -0.936918 -0.004822 -0.349437
vn -0.448836 -0.856655 -0.254250
vn 0.352458 -0.251106 -0.901486
vn -0.007355 -0.261238 -0.965239
vn -0.008606 0.064272 -0.997864
vn 0.396527 0.071444 -0.915220
vn 0.746178 0.173620 -0.642659
vn 0.715567 -0.151524 -0.681875
vn -0.369854 -0.171361 -0.913114
vn -0.399304 0.191748 -0.896512
vn -0.726279 0.016175 -0.687185
vn -0.706809 0.363689 -0.606708
vn -0.271645 0.702384 -0.657857
vn 0.011444 0.654836 -0.755638
vn -0.466414 0.779900 -0.417310
vn -0.138951 0.984954 -0.102542
vn -0.080508 0.989288 -0.121555
vn 0.001984 0.990692 -0.135960
vn 0.307474 0.654347 -0.690817
vn 0.091891 0.986633 -0.134526
vn 0.165014 0.978881 -0.120487
vn 0.541398 0.696219 -0.471297
vn -0.265389 0.702384 0.660421
vn -0.390728 0.191748 0.900296
vn 0.000885 0.064272 0.997925
vn 0.018647 0.654836 0.755516
vn 0.003265 0.990692 0.135929
vn -0.079348 0.989288 0.122318
vn -0.137974 0.984954 0.103885
vn -0.462416 0.779900 0.421735
vn -0.701010 0.363689 0.613392
vn -0.361126 -0.171361 0.916593
vn 0.001801 -0.261238 0.965270
vn -0.719687 0.016175 0.694052
vn 0.361003 -0.251106 0.898099
vn 0.405225 0.071444 0.911405
vn 0.722037 -0.151524 0.675039
vn 0.752281 0.173620 0.635517
vn 0.314035 0.654347 0.687887
vn 0.545854 0.696219 0.466109
vn 0.166173 0.978881 0.118931
vn 0.093173 0.986633 0.133641
vn -0.922239 0.215217 -0.321116
vn -0.958251 0.285836 0.004547
vn -0.862545 0.505905 0.004089
vn -0.840297 0.473830 -0.263314
vn -0.919156 0.215217 0.329875
vn -0.837764 0.473830 0.271279
vn -0.514603 0.840663 0.168523
vn -0.516129 0.856471 0.002441
vn -0.146031 0.987640 0.056368
vn -0.149602 0.988739 0.000702
vn -0.516190 0.840663 -0.163610
vn -0.146550 0.987640 -0.054964
vn 0.945524 -0.017487 0.325022
vn 0.999176 0.039674 -0.004730
vn 0.957488 0.288400 -0.004547
vn 0.921995 0.259926 0.286905
vn 0.942381 -0.017487 -0.333995
vn 0.919218 0.259926 -0.295663
vn 0.630055 0.749229 -0.204047
vn 0.643452 0.765465 -0.003052
vn 0.178472 0.981628 -0.067354
vn 0.185003 0.982727 -0.000855
vn 0.631947 0.749229 0.198035
vn 0.179113 0.981628 0.065645
vn 0.069094 0.996246 -0.051607
vn 0.000641 0.998871 -0.047395
vn 0.000580 0.999969 0.000000
vn 0.065065 0.997864 -0.000305
vn -0.062807 0.996918 -0.046937
vn -0.059206 0.998230 0.000275
vn -0.062380 0.996918 0.047517
vn 0.001099 0.998871 0.047395
vn 0.069582 0.996246 0.050935
usemtl Orange
s 1
f 1//1 120//2 121//3
f 1//1 121//3 41//4
f 1//1 41//4 132//5
f 1//1 132//5 112//6
f 1//1 112//6 151//7
f 1//1 151//7 75//8
f 1//1 75//8 133//9
f 1//1 133//9 120//2
f 2//10 119//11 121//3
f 2//10 121//3 120//2
f 2//10 120//2 133//9
f 2//10 133//9 76//12
f 2//10 76//12 152//13
f 2//10 152//13 73//14
f 2//10 73//14 131//15
f 2//10 131//15 119//11
f 3//16 42//17 121//3
f 3//16 121//3 119//11
f 3//16 119//11 131//15
f 3//16 131//15 111//18
f 3//16 111//18 154//19
f 3//16 154//19 78//20
f 3//16 78//20 134//21
f 3//16 134//21 42//17
f 4//22 41//4 121//3
f 4//22 121//3 42//17
f 4//22 42//17 134//21
f 4//22 134//21 77//23
f 4//22 77//23 153//24
f 4//22 153//24 74//25
f 4//22 74//25 132//5
f 4//22 132//5 41//4
f 5//26 43//27 122//28
f 5//26 122//28 46//29
f 5//26 46//29 133//9
f 5//26 133//9 75//8
f 5//26 75//8 151//7
f 5//26 151//7 87//30
f 5//26 87//30 140//31
f 5//26 140//31 43//27
f 6//32 44//33 122//28
f 6//32 122//28 43//27
f 6//32 43//27 140//31
f 6//32 140//31 88//34
f 6//32 88//34 155//35
f 6//32 155//35 79//36
f 6//32 79//36 135//37
f 6//32 135//37 44//33
f 7//38 45//39 122//28
f 7//38 122//28 44//33
f 7//38 44//33 135//37
f 7//38 135//37 80//40
f 7//38 80//40 156//41
f 7//38 156//41 86//42
f 7//38 86//42 139//43
f 7//38 139//43 45//39
f 8//44 46//29 122//28
f 8//44 122//28 45//39
f 8//44 45//39 139//43
f 8//44 139//43 85//45
f 8//44 85//45 152//13
f 8//44 152//13 76//12
f 8//44 76//12 133//9
f 8//44 133//9 46//29
f 9//46 47//47 123//48
f 9//46 123//48 49//49
f 9//46 49//49 131//15
f 9//46 131//15 73//14
f 9//46 73//14 152//13
f 9//46 152//13 85//45
f 9//46 85//45 139//43
f 9//46 139//43 47//47
f 10//50 48//51 123//48
f 10//50 123//48 47//47
f 10//50 47//47 139//43
f 10//50 139//43 86//42
f 10//50 86//42 156//41
f 10//50 156//41 81//52
f 10//50 81//52 136//53
f 10//50 136//53 48//51
f 11//54 116//55 123//48
f 11//54 123//48 48//51
f 11//54 48//51 136//53
f 11//54 136//53 109//56
f 11//54 109//56 158//57
f 11//54 158//57 92//58
f 11//54 92//58 142//59
f 11//54 142//59 116//55
f 12//60 49//49 123//48
f 12//60 123//48 116//55
f 12//60 116//55 142//59
f 12//60 142//59 91//61
f 12//60 91//61 154//19
f 12//60 154//19 111//18
f 12//60 111//18 131//15
f 12//60 131//15 49//49
f 13//62 55//63 125//64
f 13//62 125//64 117//65
f 13//62 117//65 141//66
f 13//62 141//66 90//67
f 13//62 90//67 157//68
f 13//62 157//68 110//69
f 13//62 110//69 138//70
f 13//62 138//70 55//63
f 14//71 54//72 125//64
f 14//71 125//64 55//63
f 14//71 55//63 138//70
f 14//71 138//70 84//73
f 14//71 84//73 155//35
f 14//71 155//35 88//34
f 14//71 88//34 140//31
f 14//71 140//31 54//72
f 15//74 118//75 125//64
f 15//74 125//64 54//72
f 15//74 54//72 140//31
f 15//74 140//31 87//30
f 15//74 87//30 151//7
f 15//74 151//7 112//6
f 15//74 112//6 132//5
f 15//74 132//5 118//75
f 16//76 117//65 125//64
f 16//76 125//64 118//75
f 16//76 118//75 132//5
f 16//76 132//5 74//25
f 16//76 74//25 153//24
f 16//76 153//24 89//77
f 16//76 89//77 141//66
f 16//76 141//66 117//65
f 17//78 53//79 124//80
f 17//78 124//80 52//81
f 17//78 52//81 134//21
f 17//78 134//21 78//20
f 17//78 78//20 154//19
f 17//78 154//19 91//61
f 17//78 91//61 142//59
f 17//78 142//59 53//79
f 18//82 50//83 124//80
f 18//82 124//80 53//79
f 18//82 53//79 142//59
f 18//82 142//59 92//58
f 18//82 92//58 158//57
f 18//82 158//57 83//84
f 18//82 83//84 137//85
f 18//82 137//85 50//83
f 19//86 51//87 124//80
f 19//86 124//80 50//83
f 19//86 50//83 137//85
f 19//86 137//85 82//88
f 19//86 82//88 157//68
f 19//86 157//68 90//67
f 19//86 90//67 141//66
f 19//86 141//66 51//87
f 20//89 52//81 124//80
f 20//89 124//80 51//87
f 20//89 51//87 141//66
f 20//89 141//66 89//77
f 20//89 89//77 153//24
f 20//89 153//24 77//23
f 20//89 77//23 134//21
f 20//89 134//21 52//81
f 21//90 56//91 126//92
f 21//90 126//92 58//93
f 21//90 58//93 145//94
f 21//90 145//94 96//95
f 21//90 96//95 155//35
f 21//90 155//35 84//73
f 21//90 84//73 138//70
f 21//90 138//70 56//91
f 22//96 114//97 126//92
f 22//96 126//92 56//91
f 22//96 56//91 138//70
f 22//96 138//70 110//69
f 22//96 110//69 157//68
f 22//96 157//68 98//98
f 22//96 98//98 146//99
f 22//96 146//99 114//97
f 23//100 57//101 126//92
f 23//100 126//92 114//97
f 23//100 114//97 146//99
f 23//100 146//99 99//102
f 23//100 99//102 160//103
f 23//100 160//103 107//104
f 23//100 107//104 144//105
f 23//100 144//105 57//101
f 24//106 58//93 126//92
f 24//106 126//92 57//101
f 24//106 57//101 144//105
f 24//106 144//105 95//107
f 24//106 95//107 162//108
f 24//106 162//108 97//109
f 24//106 97//109 145//94
f 24//106 145//94 58//93
f 25//110 115//111 128//112
f 25//110 128//112 65//113
f 25//110 65//113 149//114
f 25//110 149//114 108//115
f 25//110 108//115 159//116
f 25//110 159//116 94//117
f 25//110 94//117 143//118
f 25//110 143//118 115//111
f 26//119 63//120 128//112
f 26//119 128//112 115//111
f 26//119 115//111 143//118
f 26//119 143//118 93//121
f 26//119 93//121 158//57
f 26//119 158//57 109//56
f 26//119 109//56 136//53
f 26//119 136//53 63//120
f 27//122 64//123 128//112
f 27//122 128//112 63//120
f 27//122 63//120 136//53
f 27//122 136//53 81//52
f 27//122 81//52 156//41
f 27//122 156//41 102//124
f 27//122 102//124 148//125
f 27//122 148//125 64//123
f 28//126 65//113 128//112
f 28//126 128//112 64//123
f 28//126 64//123 148//125
f 28//126 148//125 103//127
f 28//126 103//127 161//128
f 28//126 161//128 104//129
f 28//126 104//129 149//114
f 28//126 149//114 65//113
f 29//130 60//131 127//132
f 29//130 127//132 59//133
f 29//130 59//133 146//99
f 29//130 146//99 98//98
f 29//130 98//98 157//68
f 29//130 157//68 82//88
f 29//130 82//88 137//85
f 29//130 137//85 60//131
f 30//134 61//135 127//132
f 30//134 127//132 60//131
f 30//134 60//131 137//85
f 30//134 137//85 83//84
f 30//134 83//84 158//57
f 30//134 158//57 93//121
f 30//134 93//121 143//118
f 30//134 143//118 61//135
f 31//136 62//137 127//132
f 31//136 127//132 61//135
f 31//136 61//135 143//118
f 31//136 143//118 94//117
f 31//136 94//117 159//116
f 31//136 159//116 100//138
f 31//136 100//138 147//139
f 31//136 147//139 62//137
f 32//140 59//133 127//132
f 32//140 127//132 62//137
f 32//140 62//137 147//139
f 32//140 147//139 101//141
f 32//140 101//141 160//103
f 32//140 160//103 99//102
f 32//140 99//102 146//99
f 32//140 146//99 59//133
f 33//142 66//143 129//144
f 33//142 129//144 69//145
f 33//142 69//145 148//125
f 33//142 148//125 102//124
f 33//142 102//124 156//41
f 33//142 156//41 80//40
f 33//142 80//40 135//37
f 33//142 135//37 66//143
f 34//146 67//147 129//144
f 34//146 129//144 66//143
f 34//146 66//143 135//37
f 34//146 135//37 79//36
f 34//146 79//36 155//35
f 34//146 155//35 96//95
f 34//146 96//95 145//94
f 34//146 145//94 67//147
f 35//148 68//149 129//144
f 35//148 129//144 67//147
f 35//148 67//147 145//94
f 35//148 145//94 97//109
f 35//148 97//109 162//108
f 35//148 162//108 106//150
f 35//148 106//150 150//151
f 35//148 150//151 68//149
f 36//152 69//145 129//144
f 36//152 129//144 68//149
f 36//152 68//149 150//151
f 36//152 150//151 105//153
f 36//152 105//153 161//128
f 36//152 161//128 103//127
f 36//152 103//127 148//125
f 36//152 148//125 69//145
f 37//154 70//155 130//156
f 37//154 130//156 72//157
f 37//154 72//157 150//151
f 37//154 150//151 106//150
f 37//154 106//150 162//108
f 37//154 162//108 95//107
f 37//154 95//107 144//105
f 37//154 144//105 70//155
f 38//158 113//159 130//156
f 38//158 130//156 70//155
f 38//158 70//155 144//105
f 38//158 144//105 107//104
f 38//158 107//104 160//103
f 38//158 160//103 101//141
f 38//158 101//141 147//139
f 38//158 147//139 113//159
f 39//160 71//161 130//156
f 39//160 130//156 113//159
f 39//160 113//159 147//139
f 39//160 147//139 100//138
f 39//160 100//138 159//116
f 39//160 159//116 108//115
f 39//160 108//115 149//114
f 39//160 149//114 71//161
f 40//162 72//157 130//156
f 40//162 130//156 71//161
f 40//162 71//161 149//114
f 40//162 149//114 104//129
f 40//162 104//129 161//128
f 40//162 161//128 105//153
f 40//162 105//153 150//151
f 40//162 150//151 72//157
