ply
format ascii 1.0
element vertex 24
property float x
property float y
property float z
element face 36
property list uchar int vertex_indices
end_header
-0.6500 -2.0000 0.0100
0.8500 -2.0000 0.0100
0.8500 2.0000 0.0100
-0.6500 2.0000 0.0100
-0.6500 -2.0000 0.0200
0.8500 -2.0000 0.0200
0.8500 2.0000 0.0200
-0.6500 2.0000 0.0200
0.8500 -0.0500 0.0100
4.3500 -0.0500 0.0100
4.3500 0.0500 0.0100
0.8500 0.0500 0.0100
0.8500 -0.0500 0.0200
4.3500 -0.0500 0.0200
4.3500 0.0500 0.0200
0.8500 0.0500 0.0200
4.3500 -2.0000 0.0100
5.8500 -2.0000 0.0100
5.8500 2.0000 0.0100
4.3500 2.0000 0.0100
4.3500 -2.0000 0.0200
5.8500 -2.0000 0.0200
5.8500 2.0000 0.0200
4.3500 2.0000 0.0200
3 0 3 2
3 0 2 1
3 4 5 6
3 4 6 7
3 0 1 5
3 0 5 4
3 1 2 6
3 1 6 5
3 2 3 7
3 2 7 6
3 3 0 4
3 3 4 7
3 8 11 10
3 8 10 9
3 12 13 14
3 12 14 15
3 8 9 13
3 8 13 12
3 9 10 14
3 9 14 13
3 10 11 15
3 10 15 14
3 11 8 12
3 11 12 15
3 16 19 18
3 16 18 17
3 20 21 22
3 20 22 23
3 16 17 21
3 16 21 20
3 17 18 22
3 17 22 21
3 18 19 23
3 18 23 22
3 19 16 20
3 19 20 23
