# UnrealEd OBJ exporter (_Internal)



v -206.760376 -0.000050 106.701233

v -190.893738 -0.000050 90.834595

v -207.739349 -0.000050 104.867134

v -191.873810 -0.000050 89.001602

v -207.658752 -0.000050 -104.787003

v -191.873825 -0.000050 -89.002060

v -190.901901 -0.000050 -90.994293

v -206.685730 -0.000050 -106.778130

v 205.384811 -0.000050 -106.816025

v 189.507828 -0.000050 -90.949402

v 206.398880 -0.000050 -104.868011

v 190.523407 -0.000050 -89.002907

v 206.288101 -0.000050 104.766228

v 190.523529 -0.000050 89.001587

v 189.403976 -0.000050 90.946220

v 205.167038 -0.000050 106.709343

v 203.526886 -0.000050 -107.740013

v 189.507828 -0.000050 -90.949402

v 205.384811 -0.000050 -106.816025

v 187.650482 -0.000050 -91.873962

v -204.786240 -0.000050 -107.658463

v -189.001831 -0.000050 -91.874054

v -190.901901 -0.000050 -90.994293

v -206.685730 -0.000050 -106.778130

v -204.867737 -0.000050 107.739517

v -190.893738 -0.000050 90.834595

v -206.760376 -0.000050 106.701233

v -189.001816 -0.000050 91.873596

v 203.415314 -0.000050 107.637428

v 187.651535 -0.000050 91.873589

v 189.403976 -0.000050 90.946220

v 205.167038 -0.000050 106.709343



vt 0.086853 0.010742

vt 0.163696 0.089844

vt 0.086853 0.023438

vt 0.163696 0.102539

vt 0.086853 0.976929

vt 0.163696 0.898254

vt 0.163696 0.911072

vt 0.086853 0.989983

vt 0.086853 -0.906250

vt 0.163696 -0.827148

vt 0.086853 -0.893555

vt 0.163696 -0.814453

vt 0.086853 0.060059

vt 0.163696 -0.018555

vt 0.163696 -0.005859

vt 0.086853 0.073242

vt 0.086853 1.913574

vt 0.163696 1.854004

vt 0.086853 1.927246

vt 0.163696 1.840820

vt 0.086853 0.013184

vt 0.163696 0.085938

vt 0.163696 0.072754

vt 0.086853 0.000000

vt 0.163696 0.013672

vt 0.086853 0.073242

vt 0.163696 0.000000

vt 0.086853 0.086426

vt 0.163696 1.913574

vt 0.086853 1.840332

vt 0.086853 1.853516

vt 0.163696 1.926758



vn 0.000000 1.000000 0.000000

vn 0.000000 1.000000 0.000000

vn 0.000000 1.000000 0.000000

vn 0.000000 1.000000 0.000000

vn 0.000000 1.000000 0.000000

vn 0.000000 1.000000 0.000000

vn 0.000000 1.000000 0.000000

vn 0.000000 1.000000 0.000000

vn 0.000000 1.000000 0.000000

vn 0.000000 1.000000 0.000000

vn 0.000000 1.000000 0.000000

vn 0.000000 1.000000 0.000000

vn 0.000000 1.000000 0.000000

vn 0.000000 1.000000 0.000000

vn 0.000000 1.000000 0.000000

vn 0.000000 1.000000 0.000000

vn 0.000000 1.000000 0.000000

vn 0.000000 1.000000 0.000000

vn 0.000000 1.000000 0.000000

vn 0.000000 1.000000 0.000000

vn 0.000000 1.000000 0.000000

vn 0.000000 1.000000 0.000000

vn 0.000000 1.000000 0.000000

vn 0.000000 1.000000 0.000000

vn 0.000000 1.000000 0.000000

vn 0.000000 1.000000 0.000000

vn 0.000000 1.000000 0.000000

vn 0.000000 1.000000 0.000000

vn 0.000000 1.000000 0.000000

vn 0.000000 1.000000 0.000000

vn 0.000000 1.000000 0.000000

vn 0.000000 1.000000 0.000000

f 1/1/1 2/2/2 3/3/3

f 3/3/3 2/2/2 4/4/4

f 4/4/4 5/5/5 3/3/3

f 5/5/5 4/4/4 6/6/6

f 7/7/7 5/5/5 6/6/6

f 5/5/5 7/7/7 8/8/8

f 9/9/9 10/10/10 11/11/11

f 12/12/12 11/11/11 10/10/10

f 12/12/12 13/13/13 11/11/11

f 13/13/13 12/12/12 14/14/14

f 15/15/15 13/13/13 14/14/14

f 13/13/13 15/15/15 16/16/16

f 17/17/17 18/18/18 19/19/19

f 18/18/18 17/17/17 20/20/20

f 17/17/17 21/21/21 20/20/20

f 20/20/20 21/21/21 22/22/22

f 22/22/22 21/21/21 23/23/23

f 23/23/23 21/21/21 24/24/24

f 25/25/25 26/26/26 27/27/27

f 26/26/26 25/25/25 28/28/28

f 25/25/25 29/29/29 28/28/28

f 28/28/28 29/29/29 30/30/30

f 30/30/30 29/29/29 31/31/31

f 32/32/32 31/31/31 29/29/29

