# UnrealEd OBJ exporter (_Internal)



v 90.936584 80.000092 -45.945999

v -90.936752 77.624939 -45.945976

v -90.936752 80.000092 -45.945976

v 90.936584 77.624939 -45.945999

v -90.936752 80.000092 45.945923

v 90.936584 80.000092 45.945923

v -90.936752 80.000092 -45.945976

v 90.936584 80.000092 -45.945999

v -90.936752 77.624939 45.945923

v 90.936584 80.000092 45.945923

v -90.936752 80.000092 45.945923

v 90.936584 77.624939 45.945923

v 90.936584 77.624939 45.945923

v 90.936584 77.624939 -45.945999

v 90.936584 80.000092 45.945923

v 90.936584 80.000092 -45.945999

v -90.936752 80.000092 45.945923

v -90.936752 80.000092 -45.945976

v -90.936752 77.624939 -45.945976

v -90.936752 77.624939 45.945923

v 90.936584 77.624939 45.945923

v -90.936752 77.624939 45.945923

v -90.936752 77.624939 -45.945976

v 90.936584 77.624939 -45.945999

v 85.208740 77.624939 37.033955

v 85.208740 77.624939 41.742794

v 85.208740 74.410217 37.033955

v 85.208740 74.410217 41.742794

v 85.208473 77.624939 -41.520061

v 85.208496 77.624939 -36.811218

v 85.208473 74.410202 -41.520061

v 85.208496 74.410202 -36.811218

v -85.437523 77.624939 41.742802

v -85.437523 74.410217 37.033962

v -85.437523 74.410217 41.742802

v -85.437523 77.624939 37.033962

v -85.437538 77.624939 -41.520073

v -85.437523 74.410202 -36.811214

v -85.437523 77.624939 -36.811214

v -85.437538 74.410202 -41.520073

v 79.036255 0.000122 -32.288574

v 74.483093 0.000122 -35.347412

v 79.036255 0.000122 -35.347412

v 74.483093 0.000122 -32.288330

v 79.036255 0.000084 36.956055

v 74.483093 0.000084 36.956055

v 79.036255 0.000084 33.897217

v 74.483093 0.000084 33.897217

v -79.265381 0.000114 36.956047

v -74.712280 0.000114 33.896965

v -74.712280 0.000114 36.956047

v -79.265381 0.000114 33.896965

v -79.265381 0.000084 -32.288582

v -74.712280 0.000084 -35.347664

v -74.712280 0.000084 -32.288582

v -79.265381 0.000084 -35.347664

v 80.655388 74.565910 37.033699

v 80.655396 74.565910 -36.811256

v 85.052818 74.565910 37.033699

v 85.052826 74.565910 -36.811272

v 85.052818 77.469231 37.033699

v 85.052826 77.469231 -36.811272

v 80.655396 77.469231 -36.811256

v 80.655388 77.469231 37.033699

v 80.655388 74.565910 37.033699

v 80.655396 74.565910 -36.811256

v 74.483093 0.000122 -35.347412

v 74.483093 77.624969 -35.347416

v 79.036255 77.624969 -35.347416

v 79.036255 0.000122 -35.347412

v 79.036255 77.624969 -32.288578

v 79.036255 0.000122 -32.288574

v 74.483093 0.000122 -32.288330

v 74.483093 77.624969 -32.288334

v 74.483093 0.000122 -35.347412

v 74.483093 77.624969 -35.347416

v 74.483093 77.624939 33.897213

v 74.483093 0.000084 33.897217

v 74.483093 77.624939 36.956051

v 74.483093 0.000084 36.956055

v 79.036255 77.624939 36.956051

v 79.036255 0.000084 36.956055

v 79.036255 0.000084 33.897217

v 79.036255 77.624939 33.897213

v 74.483093 77.624939 33.897213

v 74.483093 0.000084 33.897217

v -85.437523 74.410217 37.033962

v 85.208740 74.410217 41.742794

v -85.437523 74.410217 41.742802

v 85.208740 74.410217 37.033955

v -85.437523 77.624939 37.033962

v 85.208740 77.624939 37.033955

v 85.208740 77.624939 41.742794

v -85.437523 77.624939 41.742802

v 85.208740 74.410217 41.742794

v -85.437523 74.410217 41.742802

v -85.281754 74.565926 37.033958

v -85.281754 77.469231 -36.811523

v -85.281754 74.565926 -36.811523

v -85.281754 77.469231 37.033958

v -80.884323 77.469231 -36.811516

v -80.884323 77.469231 37.033958

v -80.884323 74.565926 -36.811501

v -80.884323 74.565926 37.033951

v -85.281754 74.565926 37.033958

v -85.281754 74.565926 -36.811523

v -85.437523 74.410202 -36.811214

v 85.208473 74.410202 -41.520061

v 85.208496 74.410202 -36.811218

v -85.437538 74.410202 -41.520073

v 85.208473 77.624939 -41.520061

v -85.437538 77.624939 -41.520073

v -85.437523 77.624939 -36.811214

v 85.208496 77.624939 -36.811218

v 85.208496 74.410202 -36.811218

v -85.437523 74.410202 -36.811214

v -74.712280 77.624924 -32.288586

v -79.265381 0.000084 -32.288582

v -74.712280 0.000084 -32.288582

v -79.265381 77.624924 -32.288586

v -79.265381 0.000084 -35.347664

v -79.265381 77.624924 -35.347668

v -74.712280 0.000084 -35.347664

v -74.712280 77.624924 -35.347668

v -74.712280 77.624924 -32.288586

v -74.712280 0.000084 -32.288582

v -74.712280 0.000114 36.956047

v -74.712280 77.624977 36.956043

v -79.265381 77.624977 36.956043

v -79.265381 0.000114 36.956047

v -79.265381 0.000114 33.896965

v -79.265381 77.624977 33.896961

v -74.712280 0.000114 33.896965

v -74.712280 77.624977 33.896961

v -74.712280 77.624977 36.956043

v -74.712280 0.000114 36.956047



vt 0.010742 0.941986

vt 0.594727 0.925964

vt 0.594727 0.941986

vt 0.010742 0.925964

vt 0.010742 0.637207

vt 0.594727 0.637207

vt 0.010742 0.918213

vt 0.594727 0.918213

vt 0.010742 0.612305

vt 0.594727 0.628418

vt 0.010742 0.628418

vt 0.594727 0.612305

vt 0.975586 0.936584

vt 0.975586 0.655518

vt 0.991211 0.936584

vt 0.991211 0.655518

vt 0.960938 0.655518

vt 0.960938 0.936584

vt 0.945313 0.936584

vt 0.945313 0.655518

vt 0.594727 0.637207

vt 0.010742 0.637207

vt 0.010742 0.918213

vt 0.594727 0.918213

vt 0.166138 0.117676

vt 0.183350 0.117676

vt 0.166138 0.130859

vt 0.183350 0.130859

vt 0.166138 0.103027

vt 0.183350 0.103027

vt 0.166138 0.116211

vt 0.183350 0.116211

vt 0.166138 0.073242

vt 0.183350 0.086426

vt 0.166138 0.086426

vt 0.183350 0.073242

vt 0.183350 0.088379

vt 0.166138 0.101074

vt 0.166138 0.088379

vt 0.183350 0.101074

vt 0.163452 0.155273

vt 0.185547 0.171875

vt 0.163452 0.171875

vt 0.185547 0.155273

vt 0.163452 0.193848

vt 0.185547 0.193848

vt 0.163452 0.210449

vt 0.185547 0.210449

vt 0.163452 0.152832

vt 0.185547 0.136230

vt 0.185547 0.152832

vt 0.163452 0.136230

vt 0.163452 0.191406

vt 0.185547 0.174316

vt 0.185547 0.191406

vt 0.163452 0.174316

vt 0.215576 0.563232

vt 0.215576 0.244141

vt 0.239868 0.563232

vt 0.239868 0.244141

vt 0.258057 0.563232

vt 0.258057 0.244141

vt 0.282471 0.244141

vt 0.282471 0.563232

vt 0.300781 0.563232

vt 0.300781 0.244141

vt 0.215576 0.403809

vt 0.215576 0.016602

vt 0.239868 0.016602

vt 0.239868 0.403809

vt 0.258057 0.016602

vt 0.258057 0.403809

vt 0.282471 0.403809

vt 0.282471 0.016602

vt 0.300781 0.403809

vt 0.300781 0.016602

vt 0.300781 0.403809

vt 0.300781 0.790771

vt 0.282471 0.403809

vt 0.282471 0.790771

vt 0.258057 0.403809

vt 0.258057 0.790771

vt 0.239868 0.790771

vt 0.239868 0.403809

vt 0.215576 0.403809

vt 0.215576 0.790771

vt 0.143921 0.069824

vt 0.119690 0.790894

vt 0.119690 0.069824

vt 0.143921 0.790894

vt 0.162231 0.069824

vt 0.162354 0.790894

vt 0.186646 0.790894

vt 0.186646 0.069824

vt 0.204956 0.790894

vt 0.204956 0.069824

vt 0.204956 0.563232

vt 0.186646 0.244141

vt 0.204956 0.244141

vt 0.186646 0.563232

vt 0.162354 0.244141

vt 0.162354 0.563232

vt 0.143921 0.244141

vt 0.143921 0.563232

vt 0.119690 0.563232

vt 0.119690 0.244141

vt 0.215576 0.069824

vt 0.239868 0.790771

vt 0.215576 0.790771

vt 0.239868 0.069824

vt 0.258057 0.790771

vt 0.258057 0.069824

vt 0.282471 0.069824

vt 0.282471 0.790771

vt 0.300781 0.790771

vt 0.300781 0.069824

vt 0.215576 0.403809

vt 0.239868 0.790771

vt 0.215576 0.790771

vt 0.239868 0.403809

vt 0.258057 0.790771

vt 0.258057 0.403809

vt 0.282471 0.790771

vt 0.282471 0.403809

vt 0.300781 0.403809

vt 0.300781 0.790771

vt 0.215576 0.403809

vt 0.215576 0.016602

vt 0.239868 0.016602

vt 0.239868 0.403809

vt 0.258057 0.403809

vt 0.258057 0.016602

vt 0.282471 0.403809

vt 0.282471 0.016602

vt 0.300781 0.016602

vt 0.300781 0.403809



vn 0.000000 0.000000 -1.000000

vn 0.000000 0.000000 -1.000000

vn 0.000000 0.000000 -1.000000

vn 0.000000 0.000000 -1.000000

vn 0.000000 1.000000 0.000000

vn 0.000000 1.000000 0.000000

vn 0.000000 1.000000 0.000000

vn 0.000000 1.000000 0.000000

vn 0.000000 0.000000 1.000000

vn 0.000000 0.000000 1.000000

vn 0.000000 0.000000 1.000000

vn 0.000000 0.000000 1.000000

vn 1.000000 0.000000 0.000000

vn 1.000000 0.000000 0.000000

vn 1.000000 0.000000 0.000000

vn 1.000000 0.000000 0.000000

vn -1.000000 0.000000 0.000000

vn -1.000000 0.000000 0.000000

vn -1.000000 0.000000 0.000000

vn -1.000000 0.000000 0.000000

vn 0.000000 -1.000000 0.000000

vn 0.000000 -1.000000 0.000000

vn 0.000000 -1.000000 0.000000

vn 0.000000 -1.000000 0.000000

vn 1.000000 0.000000 0.000000

vn 1.000000 0.000000 0.000000

vn 1.000000 0.000000 0.000000

vn 1.000000 0.000000 0.000000

vn 1.000000 0.000000 0.000000

vn 1.000000 0.000000 0.000000

vn 1.000000 0.000000 0.000000

vn 1.000000 0.000000 0.000000

vn -1.000000 0.000000 0.000000

vn -1.000000 0.000000 0.000000

vn -1.000000 0.000000 0.000000

vn -1.000000 0.000000 0.000000

vn -1.000000 0.000000 0.000000

vn -1.000000 0.000000 0.000000

vn -1.000000 0.000000 0.000000

vn -1.000000 0.000000 0.000000

vn 0.000000 -1.000000 0.000000

vn 0.000000 -1.000000 0.000000

vn 0.000000 -1.000000 0.000000

vn 0.000000 -1.000000 0.000000

vn 0.000000 -1.000000 0.000000

vn 0.000000 -1.000000 0.000000

vn 0.000000 -1.000000 0.000000

vn 0.000000 -1.000000 0.000000

vn 0.000000 -1.000000 0.000000

vn 0.000000 -1.000000 0.000000

vn 0.000000 -1.000000 0.000000

vn 0.000000 -1.000000 0.000000

vn 0.000000 -1.000000 0.000000

vn 0.000000 -1.000000 0.000000

vn 0.000000 -1.000000 0.000000

vn 0.000000 -1.000000 0.000000

vn -0.551181 -0.834646 0.000000

vn -0.551181 -0.834646 0.000000

vn 0.551181 -0.834646 0.000000

vn 0.551181 -0.834646 0.000000

vn 0.551181 0.834646 0.000000

vn 0.551181 0.834646 0.000000

vn -0.551181 0.834646 0.000000

vn -0.551181 0.834646 0.000000

vn -0.551181 -0.834646 0.000000

vn -0.551181 -0.834646 0.000000

vn -0.559055 0.000000 -0.826772

vn -0.559055 0.000000 -0.826772

vn 0.559055 0.000000 -0.826772

vn 0.559055 0.000000 -0.826772

vn 0.559055 0.000000 0.826772

vn 0.559055 0.000000 0.826772

vn -0.559055 0.000000 0.826772

vn -0.559055 0.000000 0.826772

vn -0.559055 0.000000 -0.826772

vn -0.559055 0.000000 -0.826772

vn -0.559055 0.000000 -0.826772

vn -0.559055 0.000000 -0.826772

vn -0.559055 0.000000 0.826772

vn -0.559055 0.000000 0.826772

vn 0.559055 0.000000 0.826772

vn 0.559055 0.000000 0.826772

vn 0.559055 0.000000 -0.826772

vn 0.559055 0.000000 -0.826772

vn -0.559055 0.000000 -0.826772

vn -0.559055 0.000000 -0.826772

vn 0.000000 -0.826772 -0.566929

vn 0.000000 -0.826772 0.566929

vn 0.000000 -0.826772 0.566929

vn 0.000000 -0.826772 -0.566929

vn 0.000000 0.826772 -0.566929

vn 0.000000 0.826772 -0.566929

vn 0.000000 0.826772 0.566929

vn 0.000000 0.826772 0.566929

vn 0.000000 -0.826772 0.566929

vn 0.000000 -0.826772 0.566929

vn -0.551181 -0.834646 0.000000

vn -0.551181 0.834646 0.000000

vn -0.551181 -0.834646 0.000000

vn -0.551181 0.834646 0.000000

vn 0.551181 0.834646 0.000000

vn 0.551181 0.834646 0.000000

vn 0.551181 -0.834646 0.000000

vn 0.551181 -0.834646 0.000000

vn -0.551181 -0.834646 0.000000

vn -0.551181 -0.834646 0.000000

vn 0.000000 -0.826772 0.566929

vn 0.000000 -0.826772 -0.566929

vn 0.000000 -0.826772 0.566929

vn 0.000000 -0.826772 -0.566929

vn 0.000000 0.826772 -0.566929

vn 0.000000 0.826772 -0.566929

vn 0.000000 0.826772 0.566929

vn 0.000000 0.826772 0.566929

vn 0.000000 -0.826772 0.566929

vn 0.000000 -0.826772 0.566929

vn 0.559055 0.000000 0.826772

vn -0.559055 0.000000 0.826772

vn 0.559055 0.000000 0.826772

vn -0.559055 0.000000 0.826772

vn -0.559055 0.000000 -0.826772

vn -0.559055 0.000000 -0.826772

vn 0.559055 0.000000 -0.826772

vn 0.559055 0.000000 -0.826772

vn 0.559055 0.000000 0.826772

vn 0.559055 0.000000 0.826772

vn 0.559055 0.000000 0.826772

vn 0.559055 0.000000 0.826772

vn -0.559055 0.000000 0.826772

vn -0.559055 0.000000 0.826772

vn -0.559055 0.000000 -0.826772

vn -0.559055 0.000000 -0.826772

vn 0.559055 0.000000 -0.826772

vn 0.559055 0.000000 -0.826772

vn 0.559055 0.000000 0.826772

vn 0.559055 0.000000 0.826772

f 1/1/1 2/2/2 3/3/3

f 2/2/2 1/1/1 4/4/4

f 5/5/5 6/6/6 7/7/7

f 8/8/8 7/7/7 6/6/6

f 9/9/9 10/10/10 11/11/11

f 10/10/10 9/9/9 12/12/12

f 13/13/13 14/14/14 15/15/15

f 16/16/16 15/15/15 14/14/14

f 17/17/17 18/18/18 19/19/19

f 17/17/17 19/19/19 20/20/20

f 21/21/21 22/22/22 23/23/23

f 21/21/21 23/23/23 24/24/24

f 25/25/25 26/26/26 27/27/27

f 26/26/26 28/28/28 27/27/27

f 29/29/29 30/30/30 31/31/31

f 30/30/30 32/32/32 31/31/31

f 33/33/33 34/34/34 35/35/35

f 34/34/34 33/33/33 36/36/36

f 37/37/37 38/38/38 39/39/39

f 38/38/38 37/37/37 40/40/40

f 41/41/41 42/42/42 43/43/43

f 42/42/42 41/41/41 44/44/44

f 45/45/45 46/46/46 47/47/47

f 46/46/46 48/48/48 47/47/47

f 49/49/49 50/50/50 51/51/51

f 50/50/50 49/49/49 52/52/52

f 53/53/53 54/54/54 55/55/55

f 54/54/54 53/53/53 56/56/56

f 57/57/57 58/58/58 59/59/59

f 59/59/59 58/58/58 60/60/60

f 59/59/59 60/60/60 61/61/61

f 62/62/62 61/61/61 60/60/60

f 63/63/63 61/61/61 62/62/62

f 61/61/61 63/63/63 64/64/64

f 64/64/64 63/63/63 65/65/65

f 66/66/66 65/65/65 63/63/63

f 67/67/67 68/68/68 69/69/69

f 69/69/69 70/70/70 67/67/67

f 71/71/71 70/70/70 69/69/69

f 70/70/70 71/71/71 72/72/72

f 71/71/71 73/73/73 72/72/72

f 74/74/74 73/73/73 71/71/71

f 74/74/74 75/75/75 73/73/73

f 76/76/76 75/75/75 74/74/74

f 77/77/77 78/78/78 79/79/79

f 79/79/79 78/78/78 80/80/80

f 79/79/79 80/80/80 81/81/81

f 81/81/81 80/80/80 82/82/82

f 83/83/83 81/81/81 82/82/82

f 81/81/81 83/83/83 84/84/84

f 84/84/84 83/83/83 85/85/85

f 85/85/85 83/83/83 86/86/86

f 87/87/87 88/88/88 89/89/89

f 88/88/88 87/87/87 90/90/90

f 91/91/91 90/90/90 87/87/87

f 91/91/91 92/92/92 90/90/90

f 91/91/91 93/93/93 92/92/92

f 93/93/93 91/91/91 94/94/94

f 94/94/94 95/95/95 93/93/93

f 95/95/95 94/94/94 96/96/96

f 97/97/97 98/98/98 99/99/99

f 98/98/98 97/97/97 100/100/100

f 98/98/98 100/100/100 101/101/101

f 101/101/101 100/100/100 102/102/102

f 102/102/102 103/103/103 101/101/101

f 103/103/103 102/102/102 104/104/104

f 105/105/105 103/103/103 104/104/104

f 103/103/103 105/105/105 106/106/106

f 107/107/107 108/108/108 109/109/109

f 108/108/108 107/107/107 110/110/110

f 108/108/108 110/110/110 111/111/111

f 112/112/112 111/111/111 110/110/110

f 113/113/113 111/111/111 112/112/112

f 111/111/111 113/113/113 114/114/114

f 114/114/114 113/113/113 115/115/115

f 116/116/116 115/115/115 113/113/113

f 117/117/117 118/118/118 119/119/119

f 120/120/120 118/118/118 117/117/117

f 120/120/120 121/121/121 118/118/118

f 122/122/122 121/121/121 120/120/120

f 122/122/122 123/123/123 121/121/121

f 124/124/124 123/123/123 122/122/122

f 125/125/125 123/123/123 124/124/124

f 123/123/123 125/125/125 126/126/126

f 127/127/127 128/128/128 129/129/129

f 129/129/129 130/130/130 127/127/127

f 129/129/129 131/131/131 130/130/130

f 132/132/132 131/131/131 129/129/129

f 132/132/132 133/133/133 131/131/131

f 134/134/134 133/133/133 132/132/132

f 135/135/135 133/133/133 134/134/134

f 133/133/133 135/135/135 136/136/136

