# 3ds Max Wavefront OBJ Exporter v0.97b - (c)2007 guruware
# File Created: 14.03.2019 12:43:53

#
# object Object001
#

v  90.9366 80.0001 -45.9460
v  -90.9368 77.6249 -45.9460
v  -90.9368 80.0001 -45.9460
v  -90.9368 77.6249 -45.9460
v  90.9366 80.0001 -45.9460
v  90.9366 77.6249 -45.9460
v  -90.9368 80.0001 45.9459
v  90.9366 80.0001 45.9459
v  -90.9368 80.0001 -45.9460
v  90.9366 80.0001 -45.9460
v  -90.9368 80.0001 -45.9460
v  90.9366 80.0001 45.9459
v  -90.9368 77.6249 45.9459
v  90.9366 80.0001 45.9459
v  -90.9368 80.0001 45.9459
v  90.9366 80.0001 45.9459
v  -90.9368 77.6249 45.9459
v  90.9366 77.6249 45.9459
v  90.9366 77.6249 45.9459
v  90.9366 77.6249 -45.9460
v  90.9366 80.0001 45.9459
v  90.9366 80.0001 -45.9460
v  90.9366 80.0001 45.9459
v  90.9366 77.6249 -45.9460
v  -90.9368 80.0001 45.9459
v  -90.9368 80.0001 -45.9460
v  -90.9368 77.6249 -45.9460
v  -90.9368 80.0001 45.9459
v  -90.9368 77.6249 -45.9460
v  -90.9368 77.6249 45.9459
v  90.9366 77.6249 45.9459
v  -90.9368 77.6249 45.9459
v  -90.9368 77.6249 -45.9460
v  90.9366 77.6249 45.9459
v  -90.9368 77.6249 -45.9460
v  90.9366 77.6249 -45.9460
v  85.2087 77.6249 37.0340
v  85.2087 77.6249 41.7428
v  85.2087 74.4102 37.0340
v  85.2087 77.6249 41.7428
v  85.2087 74.4102 41.7428
v  85.2087 74.4102 37.0340
v  85.2085 77.6249 -41.5201
v  85.2085 77.6249 -36.8112
v  85.2085 74.4102 -41.5201
v  85.2085 77.6249 -36.8112
v  85.2085 74.4102 -36.8112
v  85.2085 74.4102 -41.5201
v  -85.4375 77.6249 41.7428
v  -85.4375 74.4102 37.0340
v  -85.4375 74.4102 41.7428
v  -85.4375 74.4102 37.0340
v  -85.4375 77.6249 41.7428
v  -85.4375 77.6249 37.0340
v  -85.4375 77.6249 -41.5201
v  -85.4375 74.4102 -36.8112
v  -85.4375 77.6249 -36.8112
v  -85.4375 74.4102 -36.8112
v  -85.4375 77.6249 -41.5201
v  -85.4375 74.4102 -41.5201
v  80.6554 74.5659 37.0337
v  80.6554 74.5659 -36.8113
v  85.0528 74.5659 37.0337
v  85.0528 74.5659 37.0337
v  80.6554 74.5659 -36.8113
v  85.0528 74.5659 -36.8113
v  85.0528 74.5659 37.0337
v  85.0528 74.5659 -36.8113
v  85.0528 77.4692 37.0337
v  85.0528 77.4692 -36.8113
v  85.0528 77.4692 37.0337
v  85.0528 74.5659 -36.8113
v  80.6554 77.4692 -36.8113
v  85.0528 77.4692 37.0337
v  85.0528 77.4692 -36.8113
v  85.0528 77.4692 37.0337
v  80.6554 77.4692 -36.8113
v  80.6554 77.4692 37.0337
v  80.6554 77.4692 37.0337
v  80.6554 77.4692 -36.8113
v  80.6554 74.5659 37.0337
v  80.6554 74.5659 -36.8113
v  80.6554 74.5659 37.0337
v  80.6554 77.4692 -36.8113
v  -85.4375 74.4102 37.0340
v  85.2087 74.4102 41.7428
v  -85.4375 74.4102 41.7428
v  85.2087 74.4102 41.7428
v  -85.4375 74.4102 37.0340
v  85.2087 74.4102 37.0340
v  -85.4375 77.6249 37.0340
v  85.2087 74.4102 37.0340
v  -85.4375 74.4102 37.0340
v  -85.4375 77.6249 37.0340
v  85.2087 77.6249 37.0340
v  85.2087 74.4102 37.0340
v  -85.4375 77.6249 37.0340
v  85.2087 77.6249 41.7428
v  85.2087 77.6249 37.0340
v  85.2087 77.6249 41.7428
v  -85.4375 77.6249 37.0340
v  -85.4375 77.6249 41.7428
v  -85.4375 77.6249 41.7428
v  85.2087 74.4102 41.7428
v  85.2087 77.6249 41.7428
v  85.2087 74.4102 41.7428
v  -85.4375 77.6249 41.7428
v  -85.4375 74.4102 41.7428
v  -85.2818 74.5659 37.0340
v  -85.2818 77.4692 -36.8115
v  -85.2818 74.5659 -36.8115
v  -85.2818 77.4692 -36.8115
v  -85.2818 74.5659 37.0340
v  -85.2818 77.4692 37.0340
v  -85.2818 77.4692 -36.8115
v  -85.2818 77.4692 37.0340
v  -80.8843 77.4692 -36.8115
v  -80.8843 77.4692 -36.8115
v  -85.2818 77.4692 37.0340
v  -80.8843 77.4692 37.0340
v  -80.8843 77.4692 37.0340
v  -80.8843 74.5659 -36.8115
v  -80.8843 77.4692 -36.8115
v  -80.8843 74.5659 -36.8115
v  -80.8843 77.4692 37.0340
v  -80.8843 74.5659 37.0340
v  -85.2818 74.5659 37.0340
v  -80.8843 74.5659 -36.8115
v  -80.8843 74.5659 37.0340
v  -80.8843 74.5659 -36.8115
v  -85.2818 74.5659 37.0340
v  -85.2818 74.5659 -36.8115
v  -85.4375 74.4102 -36.8112
v  85.2085 74.4102 -41.5201
v  85.2085 74.4102 -36.8112
v  85.2085 74.4102 -41.5201
v  -85.4375 74.4102 -36.8112
v  -85.4375 74.4102 -41.5201
v  85.2085 74.4102 -41.5201
v  -85.4375 74.4102 -41.5201
v  85.2085 77.6249 -41.5201
v  -85.4375 77.6249 -41.5201
v  85.2085 77.6249 -41.5201
v  -85.4375 74.4102 -41.5201
v  -85.4375 77.6249 -36.8112
v  85.2085 77.6249 -41.5201
v  -85.4375 77.6249 -41.5201
v  85.2085 77.6249 -41.5201
v  -85.4375 77.6249 -36.8112
v  85.2085 77.6249 -36.8112
v  85.2085 77.6249 -36.8112
v  -85.4375 77.6249 -36.8112
v  85.2085 74.4102 -36.8112
v  -85.4375 74.4102 -36.8112
v  85.2085 74.4102 -36.8112
v  -85.4375 77.6249 -36.8112
# 156 vertices

vn -0.0000 0.0000 -1.0000
vn -0.0000 0.0000 -1.0000
vn -0.0000 0.0000 -1.0000
vn -0.0000 0.0000 -1.0000
vn -0.0000 0.0000 -1.0000
vn -0.0000 0.0000 -1.0000
vn 0.0000 0.0000 1.0000
vn 0.0000 0.0000 1.0000
vn 0.0000 0.0000 1.0000
vn 0.0000 0.0000 1.0000
vn 0.0000 0.0000 1.0000
vn 0.0000 0.0000 1.0000
vn 1.0000 0.0000 -0.0000
vn 1.0000 0.0000 -0.0000
vn 1.0000 0.0000 -0.0000
vn 1.0000 0.0000 -0.0000
vn 1.0000 0.0000 -0.0000
vn 1.0000 0.0000 -0.0000
vn 1.0000 0.0000 -0.0000
vn 1.0000 0.0000 -0.0000
vn 1.0000 0.0000 -0.0000
vn 1.0000 0.0000 -0.0000
vn 1.0000 0.0000 -0.0000
vn 1.0000 0.0000 -0.0000
vn -1.0000 0.0000 -0.0000
vn -1.0000 0.0000 -0.0000
vn -1.0000 0.0000 -0.0000
vn -1.0000 0.0000 -0.0000
vn -1.0000 0.0000 -0.0000
vn -1.0000 0.0000 -0.0000
vn -1.0000 0.0000 0.0000
vn -1.0000 0.0000 0.0000
vn -1.0000 0.0000 0.0000
vn -1.0000 0.0000 0.0000
vn -1.0000 0.0000 0.0000
vn -1.0000 0.0000 0.0000
vn 0.0000 -1.0000 -0.0000
vn 0.0000 -1.0000 -0.0000
vn 0.0000 -1.0000 -0.0000
vn 0.0000 -1.0000 -0.0000
vn 0.0000 -1.0000 -0.0000
vn 0.0000 -1.0000 -0.0000
vn 1.0000 0.0000 0.0000
vn 1.0000 0.0000 0.0000
vn 1.0000 0.0000 0.0000
vn 1.0000 0.0000 0.0000
vn 1.0000 0.0000 0.0000
vn 1.0000 0.0000 0.0000
vn 0.0000 1.0000 -0.0000
vn 0.0000 1.0000 -0.0000
vn 0.0000 1.0000 -0.0000
vn 0.0000 1.0000 -0.0000
vn 0.0000 1.0000 -0.0000
vn 0.0000 1.0000 -0.0000
vn -1.0000 0.0000 -0.0000
vn -1.0000 0.0000 -0.0000
vn -1.0000 0.0000 -0.0000
vn -1.0000 0.0000 -0.0000
vn -1.0000 0.0000 -0.0000
vn -1.0000 0.0000 -0.0000
vn 0.0000 -1.0000 -0.0000
vn 0.0000 -1.0000 -0.0000
vn 0.0000 -1.0000 -0.0000
vn 0.0000 -1.0000 -0.0000
vn 0.0000 -1.0000 -0.0000
vn 0.0000 -1.0000 -0.0000
vn -0.0000 0.0000 -1.0000
vn -0.0000 -0.0000 -1.0000
vn -0.0000 0.0000 -1.0000
vn -0.0000 -0.0000 -1.0000
vn -0.0000 0.0000 -1.0000
vn -0.0000 0.0000 -1.0000
vn 0.0000 1.0000 -0.0000
vn 0.0000 1.0000 -0.0000
vn 0.0000 1.0000 -0.0000
vn 0.0000 1.0000 -0.0000
vn 0.0000 1.0000 -0.0000
vn 0.0000 1.0000 -0.0000
vn 0.0000 0.0000 1.0000
vn 0.0000 0.0000 1.0000
vn 0.0000 0.0000 1.0000
vn 0.0000 0.0000 1.0000
vn 0.0000 0.0000 1.0000
vn 0.0000 0.0000 1.0000
vn -1.0000 0.0000 -0.0000
vn -1.0000 0.0000 -0.0000
vn -1.0000 0.0000 -0.0000
vn -1.0000 0.0000 -0.0000
vn -1.0000 0.0000 -0.0000
vn -1.0000 0.0000 -0.0000
vn 0.0000 1.0000 -0.0000
vn 0.0000 1.0000 -0.0000
vn 0.0000 1.0000 -0.0000
vn 0.0000 1.0000 -0.0000
vn 0.0000 1.0000 -0.0000
vn 0.0000 1.0000 -0.0000
vn 1.0000 0.0000 -0.0000
vn 1.0000 0.0000 -0.0000
vn 1.0000 0.0000 -0.0000
vn 1.0000 0.0000 -0.0000
vn 1.0000 0.0000 -0.0000
vn 1.0000 0.0000 -0.0000
vn 0.0000 -1.0000 -0.0000
vn 0.0000 -1.0000 -0.0000
vn 0.0000 -1.0000 -0.0000
vn 0.0000 -1.0000 -0.0000
vn 0.0000 -1.0000 -0.0000
vn 0.0000 -1.0000 -0.0000
vn 0.0000 -1.0000 -0.0000
vn 0.0000 -1.0000 -0.0000
vn 0.0000 -1.0000 -0.0000
vn 0.0000 -1.0000 -0.0000
vn 0.0000 -1.0000 -0.0000
vn 0.0000 -1.0000 -0.0000
vn 0.0000 0.0000 -1.0000
vn 0.0000 0.0000 -1.0000
vn 0.0000 0.0000 -1.0000
vn 0.0000 0.0000 -1.0000
vn 0.0000 0.0000 -1.0000
vn 0.0000 0.0000 -1.0000
vn 0.0000 1.0000 -0.0000
vn 0.0000 1.0000 -0.0000
vn 0.0000 1.0000 -0.0000
vn 0.0000 1.0000 -0.0000
vn 0.0000 1.0000 -0.0000
vn 0.0000 1.0000 -0.0000
vn 0.0000 0.0000 1.0000
vn 0.0000 0.0000 1.0000
vn 0.0000 0.0000 1.0000
vn 0.0000 0.0000 1.0000
vn 0.0000 0.0000 1.0000
vn 0.0000 0.0000 1.0000
vn 0.0000 1.0000 -0.0000
vn 0.0000 1.0000 -0.0000
vn 0.0000 1.0000 -0.0000
vn 0.0000 1.0000 -0.0000
vn 0.0000 1.0000 -0.0000
vn 0.0000 1.0000 -0.0000
vn 0.0000 -1.0000 -0.0000
vn 0.0000 -1.0000 -0.0000
vn 0.0000 -1.0000 -0.0000
vn 0.0000 -1.0000 -0.0000
vn 0.0000 -1.0000 -0.0000
vn 0.0000 -1.0000 -0.0000
vn 1.0000 0.0000 -0.0000
vn 1.0000 0.0000 -0.0000
vn 1.0000 0.0000 -0.0000
vn 1.0000 0.0000 -0.0000
vn 1.0000 0.0000 -0.0000
vn 1.0000 0.0000 -0.0000
vn -1.0000 0.0000 -0.0000
vn -1.0000 0.0000 -0.0000
vn -1.0000 0.0000 -0.0000
vn -1.0000 0.0000 -0.0000
vn -1.0000 0.0000 -0.0000
vn -1.0000 0.0000 -0.0000
# 156 vertex normals

vt 0.0107 0.9420 0.0000
vt 0.5947 0.9260 0.0000
vt 0.5947 0.9420 0.0000
vt 0.5947 0.9260 0.0000
vt 0.0107 0.9420 0.0000
vt 0.0107 0.9260 0.0000
vt 0.0107 0.6372 0.0000
vt 0.5947 0.6372 0.0000
vt 0.0107 0.9182 0.0000
vt 0.5947 0.9182 0.0000
vt 0.0107 0.9182 0.0000
vt 0.5947 0.6372 0.0000
vt 0.0107 0.6123 0.0000
vt 0.5947 0.6284 0.0000
vt 0.0107 0.6284 0.0000
vt 0.5947 0.6284 0.0000
vt 0.0107 0.6123 0.0000
vt 0.5947 0.6123 0.0000
vt 0.9756 0.9366 0.0000
vt 0.9756 0.6555 0.0000
vt 0.9912 0.9366 0.0000
vt 0.9912 0.6555 0.0000
vt 0.9912 0.9366 0.0000
vt 0.9756 0.6555 0.0000
vt 0.9609 0.6555 0.0000
vt 0.9609 0.9366 0.0000
vt 0.9453 0.9366 0.0000
vt 0.9609 0.6555 0.0000
vt 0.9453 0.9366 0.0000
vt 0.9453 0.6555 0.0000
vt 0.5947 0.6372 0.0000
vt 0.0107 0.6372 0.0000
vt 0.0107 0.9182 0.0000
vt 0.5947 0.6372 0.0000
vt 0.0107 0.9182 0.0000
vt 0.5947 0.9182 0.0000
vt 0.1661 0.1177 0.0000
vt 0.1833 0.1177 0.0000
vt 0.1661 0.1309 0.0000
vt 0.1833 0.1177 0.0000
vt 0.1833 0.1309 0.0000
vt 0.1661 0.1309 0.0000
vt 0.1661 0.1030 0.0000
vt 0.1833 0.1030 0.0000
vt 0.1661 0.1162 0.0000
vt 0.1833 0.1030 0.0000
vt 0.1833 0.1162 0.0000
vt 0.1661 0.1162 0.0000
vt 0.1661 0.0732 0.0000
vt 0.1833 0.0864 0.0000
vt 0.1661 0.0864 0.0000
vt 0.1833 0.0864 0.0000
vt 0.1661 0.0732 0.0000
vt 0.1833 0.0732 0.0000
vt 0.1833 0.0884 0.0000
vt 0.1661 0.1011 0.0000
vt 0.1661 0.0884 0.0000
vt 0.1661 0.1011 0.0000
vt 0.1833 0.0884 0.0000
vt 0.1833 0.1011 0.0000
vt 0.2156 0.5632 0.0000
vt 0.2156 0.2441 0.0000
vt 0.2399 0.5632 0.0000
vt 0.2399 0.5632 0.0000
vt 0.2156 0.2441 0.0000
vt 0.2399 0.2441 0.0000
vt 0.2399 0.5632 0.0000
vt 0.2399 0.2441 0.0000
vt 0.2581 0.5632 0.0000
vt 0.2581 0.2441 0.0000
vt 0.2581 0.5632 0.0000
vt 0.2399 0.2441 0.0000
vt 0.2825 0.2441 0.0000
vt 0.2581 0.5632 0.0000
vt 0.2581 0.2441 0.0000
vt 0.2581 0.5632 0.0000
vt 0.2825 0.2441 0.0000
vt 0.2825 0.5632 0.0000
vt 0.2825 0.5632 0.0000
vt 0.2825 0.2441 0.0000
vt 0.3008 0.5632 0.0000
vt 0.3008 0.2441 0.0000
vt 0.3008 0.5632 0.0000
vt 0.2825 0.2441 0.0000
vt 0.1439 0.0698 0.0000
vt 0.1197 0.7909 0.0000
vt 0.1197 0.0698 0.0000
vt 0.1197 0.7909 0.0000
vt 0.1439 0.0698 0.0000
vt 0.1439 0.7909 0.0000
vt 0.1622 0.0698 0.0000
vt 0.1439 0.7909 0.0000
vt 0.1439 0.0698 0.0000
vt 0.1622 0.0698 0.0000
vt 0.1624 0.7909 0.0000
vt 0.1439 0.7909 0.0000
vt 0.1622 0.0698 0.0000
vt 0.1866 0.7909 0.0000
vt 0.1624 0.7909 0.0000
vt 0.1866 0.7909 0.0000
vt 0.1622 0.0698 0.0000
vt 0.1866 0.0698 0.0000
vt 0.1866 0.0698 0.0000
vt 0.2050 0.7909 0.0000
vt 0.1866 0.7909 0.0000
vt 0.2050 0.7909 0.0000
vt 0.1866 0.0698 0.0000
vt 0.2050 0.0698 0.0000
vt 0.2050 0.5632 0.0000
vt 0.1866 0.2441 0.0000
vt 0.2050 0.2441 0.0000
vt 0.1866 0.2441 0.0000
vt 0.2050 0.5632 0.0000
vt 0.1866 0.5632 0.0000
vt 0.1866 0.2441 0.0000
vt 0.1866 0.5632 0.0000
vt 0.1624 0.2441 0.0000
vt 0.1624 0.2441 0.0000
vt 0.1866 0.5632 0.0000
vt 0.1624 0.5632 0.0000
vt 0.1624 0.5632 0.0000
vt 0.1439 0.2441 0.0000
vt 0.1624 0.2441 0.0000
vt 0.1439 0.2441 0.0000
vt 0.1624 0.5632 0.0000
vt 0.1439 0.5632 0.0000
vt 0.1197 0.5632 0.0000
vt 0.1439 0.2441 0.0000
vt 0.1439 0.5632 0.0000
vt 0.1439 0.2441 0.0000
vt 0.1197 0.5632 0.0000
vt 0.1197 0.2441 0.0000
vt 0.2156 0.0698 0.0000
vt 0.2399 0.7908 0.0000
vt 0.2156 0.7908 0.0000
vt 0.2399 0.7908 0.0000
vt 0.2156 0.0698 0.0000
vt 0.2399 0.0698 0.0000
vt 0.2399 0.7908 0.0000
vt 0.2399 0.0698 0.0000
vt 0.2581 0.7908 0.0000
vt 0.2581 0.0698 0.0000
vt 0.2581 0.7908 0.0000
vt 0.2399 0.0698 0.0000
vt 0.2825 0.0698 0.0000
vt 0.2581 0.7908 0.0000
vt 0.2581 0.0698 0.0000
vt 0.2581 0.7908 0.0000
vt 0.2825 0.0698 0.0000
vt 0.2825 0.7908 0.0000
vt 0.2825 0.7908 0.0000
vt 0.2825 0.0698 0.0000
vt 0.3008 0.7908 0.0000
vt 0.3008 0.0698 0.0000
vt 0.3008 0.7908 0.0000
vt 0.2825 0.0698 0.0000
# 156 texture coords

o Object001
g Object001
s off
f 1/1/1 2/2/2 3/3/3 
f 4/4/4 5/5/5 6/6/6 
f 13/13/7 14/14/8 15/15/9 
f 16/16/10 17/17/11 18/18/12 
f 37/37/13 38/38/14 39/39/15 
f 40/40/16 41/41/17 42/42/18 
f 43/43/19 44/44/20 45/45/21 
f 46/46/22 47/47/23 48/48/24 
f 49/49/25 50/50/26 51/51/27 
f 52/52/28 53/53/29 54/54/30 
f 55/55/31 56/56/32 57/57/33 
f 58/58/34 59/59/35 60/60/36 
f 61/61/37 62/62/38 63/63/39 
f 64/64/40 65/65/41 66/66/42 
f 67/67/43 68/68/44 69/69/45 
f 70/70/46 71/71/47 72/72/48 
f 73/73/49 74/74/50 75/75/51 
f 76/76/52 77/77/53 78/78/54 
f 79/79/55 80/80/56 81/81/57 
f 82/82/58 83/83/59 84/84/60 
f 85/85/61 86/86/62 87/87/63 
f 88/88/64 89/89/65 90/90/66 
f 91/91/67 92/92/68 93/93/69 
f 94/94/70 95/95/71 96/96/72 
f 97/97/73 98/98/74 99/99/75 
f 100/100/76 101/101/77 102/102/78 
f 103/103/79 104/104/80 105/105/81 
f 106/106/82 107/107/83 108/108/84 
f 109/109/85 110/110/86 111/111/87 
f 112/112/88 113/113/89 114/114/90 
f 115/115/91 116/116/92 117/117/93 
f 118/118/94 119/119/95 120/120/96 
f 121/121/97 122/122/98 123/123/99 
f 124/124/100 125/125/101 126/126/102 
f 127/127/103 128/128/104 129/129/105 
f 130/130/106 131/131/107 132/132/108 
f 133/133/109 134/134/110 135/135/111 
f 136/136/112 137/137/113 138/138/114 
f 139/139/115 140/140/116 141/141/117 
f 142/142/118 143/143/119 144/144/120 
f 145/145/121 146/146/122 147/147/123 
f 148/148/124 149/149/125 150/150/126 
f 151/151/127 152/152/128 153/153/129 
f 154/154/130 155/155/131 156/156/132 
s 1
f 7/7/133 8/8/134 9/9/135 
f 10/10/136 11/11/137 12/12/138 
f 31/31/139 32/32/140 33/33/141 
f 34/34/142 35/35/143 36/36/144 
s 2
f 19/19/145 20/20/146 21/21/147 
f 22/22/148 23/23/149 24/24/150 
f 25/25/151 26/26/152 27/27/153 
f 28/28/154 29/29/155 30/30/156 
# 0 polygons - 52 triangles

