# 3ds Max Wavefront OBJ Exporter v0.97b - (c)2007 guruware
# File Created: 14.03.2019 19:22:54

#
# object Object001
#

v  90.9366 80.0001 -45.9460
v  -90.9368 77.6249 -45.9460
v  -90.9368 80.0001 -45.9460
v  90.9366 77.6249 -45.9460
v  -90.9368 77.6249 45.9459
v  90.9366 80.0001 45.9459
v  -90.9368 80.0001 45.9459
v  90.9366 77.6249 45.9459
v  85.2087 77.6249 37.0340
v  85.2087 77.6249 41.7428
v  85.2087 74.4102 37.0340
v  85.2087 74.4102 41.7428
v  85.2085 77.6249 -41.5201
v  85.2085 77.6249 -36.8112
v  85.2085 74.4102 -41.5201
v  85.2085 74.4102 -36.8112
v  -85.4375 77.6249 41.7428
v  -85.4375 74.4102 37.0340
v  -85.4375 74.4102 41.7428
v  -85.4375 77.6249 37.0340
v  -85.4375 77.6249 -41.5201
v  -85.4375 74.4102 -36.8112
v  -85.4375 77.6249 -36.8112
v  -85.4375 74.4102 -41.5201
v  80.6554 74.5659 37.0337
v  80.6554 74.5659 -36.8113
v  85.0528 74.5659 37.0337
v  85.0528 74.5659 -36.8113
v  85.0528 77.4692 37.0337
v  85.0528 77.4692 -36.8113
v  80.6554 77.4692 -36.8113
v  80.6554 77.4692 37.0337
v  -85.2818 74.5659 37.0340
v  -85.2818 77.4692 -36.8115
v  -85.2818 74.5659 -36.8115
v  -85.2818 77.4692 37.0340
v  -80.8843 77.4692 -36.8115
v  -80.8843 77.4692 37.0340
v  -80.8843 74.5659 -36.8115
v  -80.8843 74.5659 37.0340
# 40 vertices

vn 0.0000 0.0000 -1.0000
vn 0.0000 0.0000 1.0000
vn 1.0000 0.0000 -0.0000
vn -1.0000 0.0000 -0.0000
vn 0.0000 -1.0000 -0.0000
vn 1.0000 -0.0000 0.0000
vn 0.0000 1.0000 -0.0000
vn -1.0000 0.0000 0.0000
vn -0.0000 -1.0000 -0.0000
vn 0.0000 -1.0000 0.0000
vn -0.0000 1.0000 -0.0000
vn 0.0000 1.0000 0.0000
vn -0.0000 0.0000 1.0000
# 13 vertex normals

vt 0.0107 0.9420 0.0000
vt 0.5947 0.9260 0.0000
vt 0.5947 0.9420 0.0000
vt 0.0107 0.9260 0.0000
vt 0.0107 0.6123 0.0000
vt 0.5947 0.6284 0.0000
vt 0.0107 0.6284 0.0000
vt 0.5947 0.6123 0.0000
vt 0.1661 0.1177 0.0000
vt 0.1833 0.1177 0.0000
vt 0.1661 0.1309 0.0000
vt 0.1833 0.1309 0.0000
vt 0.1661 0.1030 0.0000
vt 0.1833 0.1030 0.0000
vt 0.1661 0.1162 0.0000
vt 0.1833 0.1162 0.0000
vt 0.1661 0.0732 0.0000
vt 0.1833 0.0864 0.0000
vt 0.1661 0.0864 0.0000
vt 0.1833 0.0732 0.0000
vt 0.1833 0.0884 0.0000
vt 0.1661 0.1011 0.0000
vt 0.1661 0.0884 0.0000
vt 0.1833 0.1011 0.0000
vt 0.2156 0.5632 0.0000
vt 0.2156 0.2441 0.0000
vt 0.2399 0.5632 0.0000
vt 0.2399 0.2441 0.0000
vt 0.2581 0.5632 0.0000
vt 0.2581 0.2441 0.0000
vt 0.2825 0.2441 0.0000
vt 0.2825 0.5632 0.0000
vt 0.3008 0.5632 0.0000
vt 0.3008 0.2441 0.0000
vt 0.1439 0.0698 0.0000
vt 0.1197 0.7909 0.0000
vt 0.1197 0.0698 0.0000
vt 0.1439 0.7909 0.0000
vt 0.1622 0.0698 0.0000
vt 0.1624 0.7909 0.0000
vt 0.1866 0.7909 0.0000
vt 0.1866 0.0698 0.0000
vt 0.2050 0.7909 0.0000
vt 0.2050 0.0698 0.0000
vt 0.2050 0.5632 0.0000
vt 0.1866 0.2441 0.0000
vt 0.2050 0.2441 0.0000
vt 0.1866 0.5632 0.0000
vt 0.1624 0.2441 0.0000
vt 0.1624 0.5632 0.0000
vt 0.1439 0.2441 0.0000
vt 0.1439 0.5632 0.0000
vt 0.1197 0.5632 0.0000
vt 0.1197 0.2441 0.0000
vt 0.2156 0.0698 0.0000
vt 0.2399 0.7908 0.0000
vt 0.2156 0.7908 0.0000
vt 0.2399 0.0698 0.0000
vt 0.2581 0.7908 0.0000
vt 0.2581 0.0698 0.0000
vt 0.2825 0.0698 0.0000
vt 0.2825 0.7908 0.0000
vt 0.3008 0.7908 0.0000
vt 0.3008 0.0698 0.0000
vt 0.0107 0.6372 0.0000
vt 0.5947 0.6372 0.0000
vt 0.0107 0.9182 0.0000
vt 0.5947 0.9182 0.0000
vt 0.9756 0.9366 0.0000
vt 0.9756 0.6555 0.0000
vt 0.9912 0.9366 0.0000
vt 0.9912 0.6555 0.0000
vt 0.9609 0.6555 0.0000
vt 0.9609 0.9366 0.0000
vt 0.9453 0.9366 0.0000
vt 0.9453 0.6555 0.0000
# 76 texture coords

o Object001
g Object001
s 1
f 1/1/1 2/2/1 3/3/1 
f 2/2/1 1/1/1 4/4/1 
f 5/5/2 6/6/2 7/7/2 
f 6/6/2 5/5/2 8/8/2 
f 9/9/3 10/10/3 11/11/3 
f 10/10/3 12/12/3 11/11/3 
f 13/13/3 14/14/3 15/15/3 
f 14/14/3 16/16/3 15/15/3 
f 17/17/4 18/18/4 19/19/4 
f 18/18/4 17/17/4 20/20/4 
f 21/21/4 22/22/4 23/23/4 
f 22/22/4 21/21/4 24/24/4 
f 25/25/5 26/26/5 27/27/5 
f 27/27/5 26/26/5 28/28/5 
s 2
f 27/27/3 28/28/6 29/29/6 
f 30/30/6 29/29/6 28/28/6 
s 1
f 31/31/7 29/29/7 30/30/7 
f 29/29/7 31/31/7 32/32/7 
s 2
f 32/32/8 31/31/8 25/33/8 
f 26/34/4 25/33/8 31/31/8 
f 18/35/5 12/36/5 19/37/5 
f 12/36/5 18/35/5 11/38/5 
s 4
f 20/39/1 11/38/1 18/35/1 
f 20/39/1 9/40/1 11/38/1 
s 2
f 20/39/7 10/41/7 9/40/7 
f 10/41/7 20/39/7 17/42/7 
s 4
f 17/42/2 12/43/2 10/41/2 
f 12/43/2 17/42/2 19/44/2 
s 1
f 33/45/4 34/46/4 35/47/4 
f 34/46/4 33/45/4 36/48/4 
s 2
f 34/46/7 36/48/7 37/49/7 
f 37/49/7 36/48/7 38/50/7 
s 1
f 38/50/3 39/51/3 37/49/3 
f 39/51/3 38/50/3 40/52/3 
s 2
f 33/53/9 39/51/10 40/52/9 
f 39/51/10 33/53/9 35/54/10 
f 22/55/5 15/56/5 16/57/5 
f 15/56/5 22/55/5 24/58/5 
s 4
f 15/56/1 24/58/1 13/59/1 
f 21/60/1 13/59/1 24/58/1 
s 2
f 23/61/11 13/59/12 21/60/11 
f 13/59/12 23/61/11 14/62/12 
s 4
f 14/62/13 23/61/13 16/63/13 
f 22/64/13 16/63/13 23/61/13 
s 2
f 7/65/7 6/66/7 3/67/7 
f 1/68/7 3/67/7 6/66/7 
f 8/66/9 5/65/5 2/67/9 
f 8/66/9 2/67/9 4/68/9 
s 4
f 8/69/3 4/70/3 6/71/3 
f 1/72/3 6/71/3 4/70/3 
f 7/73/8 3/74/4 2/75/8 
f 7/73/8 2/75/8 5/76/8 
# 0 polygons - 52 triangles

